<?xml version="1.0" standalone="no"?>
<!DOCTYPE svg PUBLIC "-//W3C//DTD SVG 1.1//EN" "http://www.w3.org/Graphics/SVG/1.1/DTD/svg11.dtd" >
<svg>
<metadata>
Created by FontForge 20090622 at Mon Dec 19 13:19:58 2016
 By deploy user
Copyright (c) Phillip Andrade, 1999. All rights reserved.
</metadata>
<defs>
<font id="AlienMarksman" horiz-adv-x="529" >
  <font-face 
    font-family="Alien Marksman"
    font-weight="400"
    font-stretch="normal"
    units-per-em="1000"
    panose-1="0 0 0 0 0 0 0 0 0 0"
    ascent="800"
    descent="-200"
    x-height="527"
    cap-height="786"
    bbox="-2 -307 995 985"
    underline-thickness="50"
    underline-position="-75"
    unicode-range="U+0020-U+007E"
  />
<missing-glyph horiz-adv-x="500" 
 />
    <glyph glyph-name=".notdef" horiz-adv-x="500" 
 />
    <glyph glyph-name="space" unicode=" " horiz-adv-x="500" 
 />
    <glyph glyph-name="exclam" unicode="!" horiz-adv-x="190" 
d="M8 237q0 -25 2 -40t10.5 -22.5t24.5 -10t43 -2.5q0 26 3 42t11.5 24.5t24.5 11.5t42 3v27t-3.5 25.5t-11.5 19t-24 7.5q-32 0 -55 -2t-38 -10.5t-22 -25.5t-7 -47zM111 406l17 -34q3 1 9.5 7.5t7.5 9.5q8 20 14 52t10.5 65t7 61.5t2.5 41.5q0 4 0.5 22t1 40.5t0.5 44.5
v35v24q0 16 -0.5 31t-1 26.5t-0.5 12.5l-17 17h-159q0 -33 -1 -63.5t4.5 -57t21.5 -47.5t50 -35z" />
    <glyph glyph-name="quotedbl" unicode="&#x22;" horiz-adv-x="292" 
d="M5 715v-65t2 -71.5t6.5 -72t13.5 -66.5q1 0 4 -0.5t4 -0.5q22 0 31.5 23t12.5 53.5t1.5 60t-1.5 42.5v15t-0.5 23t-0.5 23v15q-17 14 -35 17.5t-38 3.5zM179 576v-46q0 -24 4.5 -44t17 -33.5t38.5 -13.5q17 0 26 4t13 11.5t4.5 19.5t0.5 28q0 18 -6 28.5t-13 19.5t-13 18
t-6 24q0 17 7 27t16 20t16 22t7 33h-95l-2.5 -11.5t-5 -28t-5.5 -33.5t-4 -29v-16z" />
    <glyph glyph-name="numbersign" unicode="#" horiz-adv-x="614" 
d="M78 381q0 -23 -3.5 -45.5l-7 -45l-7 -45.5t-3.5 -47l13.5 0.5t29.5 2.5t30 6.5t16 12.5l33 152q1 3 14 9.5t20 7.5q6 1 20.5 0t30.5 -2.5t30 -2.5t20 -1q0 -47 -9.5 -93t-9.5 -94q4 0 16.5 1t27 2t27 2t17.5 2q3 1 9.5 7.5t7.5 9.5q-20 7 -36 17.5t-16 33.5q0 14 5.5 20
t14.5 9t20.5 6t23 12.5t22 27.5t17.5 52h161l-1.5 10.5t-5 25.5t-8.5 30.5t-11 26.5q-2 3 -18 5.5t-35 6.5t-34 11t-15 18q0 47 9.5 72.5t23.5 38.5t30.5 18t30.5 10t23.5 15t9.5 34q0 5 -3 21t-5 21q-20 -6 -30.5 -4t-15.5 8t-5.5 15.5t-0.5 18.5q0 5 0.5 16.5t0.5 13.5
q1 7 3 24t5 35.5t5.5 35.5l3.5 24q-2 10 -11 14t-20 5t-21 0.5t-13 -0.5q-26 0 -37.5 -15t-16.5 -37.5t-9 -48.5t-15.5 -48.5t-36 -37.5t-70.5 -15q0 52 8.5 99.5t8.5 100.5h-106l-23 -101t-29.5 -71.5t-54 -49t-96.5 -33.5v-59h119q-11 -58 -25 -86t-29.5 -39.5t-30.5 -13
t-27 -5.5t-19.5 -17t-7.5 -48q0 -8 1 -22t2 -15q3 -4 12 -8t20 -7t21 -3.5t15 1.5v-8zM370 655q0 -45 -5.5 -72t-21.5 -41.5t-44 -19t-74 -4.5q0 73 35 105t110 32z" />
    <glyph glyph-name="dollar" unicode="$" 
d="M10 381q0 -48 17.5 -79t44.5 -53.5t60 -40t64 -39.5q10 -7 13.5 -16l6.5 -17t9.5 -13.5t21.5 -5.5q1 0 19 17l44.5 42l57.5 54.5l57 55l43.5 42.5t17.5 18q0 10 -6 16.5t-12.5 12.5t-12.5 12.5t-6 17.5q0 16 6.5 24t17 12t24 4.5t26.5 0.5q0 43 -22 77.5t-56 60.5
t-73.5 45t-73.5 31v152q20 -8 35 -17l29.5 -17t31 -13.5t39.5 -5.5q3 0 10.5 0.5l15.5 1t15 1t10 0.5q-6 17 -23.5 40.5t-42 48t-52.5 48.5t-54.5 43t-48 30.5t-32.5 11.5q-4 0 -10.5 -1t-7.5 -1q-2 -1 -6.5 -6t-10.5 -11l-11 -11l-6 -6q-32 -18 -62.5 -33t-54.5 -34.5
t-38.5 -47t-14.5 -71.5q0 -51 16.5 -84t41.5 -56t53.5 -40.5t53.5 -37t41.5 -45t16.5 -64.5q0 -32 -2.5 -56.5t-16.5 -57.5q-4 2 -17 8t-17 9q-3 2 -12.5 12.5l-20.5 22.5l-21 22t-13 11q-6 2 -21 1t-31 -4t-30.5 -6.5t-19.5 -7.5v-8zM315 491h8q13 0 27 -7t25 -18t18 -25
t7 -27q0 -18 -6.5 -36t-18 -31.5t-27 -22t-33.5 -8.5v175zM129 762q0 26 19.5 39t39.5 13q21 0 31.5 -7.5t14.5 -21t3.5 -31.5t-0.5 -39q-2 0 -12 -1.5t-12 -2.5t-8.5 -8.5t-8.5 -8.5q0 -1 -3 -1h-5q-8 0 -18 7.5t-19 18.5t-15.5 23t-6.5 20z" />
    <glyph glyph-name="percent" unicode="%" horiz-adv-x="817" 
d="M501 288q20 -25 36 -39t33.5 -21t39 -8.5t52.5 -1.5q4 0 15 0.5t23 0.5t23 0.5t15 0.5q41 27 55.5 69.5t14.5 88.5q0 27 -2.5 47t-10 36t-21.5 31t-36 33h-15t-23 0.5t-23 0.5h-15q-45 0 -76 -8.5t-50 -27.5t-27.5 -50t-8.5 -76v-15t0.5 -23t0.5 -23v-15zM551 416
q0 18 4.5 27t13 12.5t21.5 3.5h30q12 0 22 1t18 0t15 -5.5t13 -14.5q1 -2 5.5 -12.5t10 -22l10.5 -21.5t7 -12q10 -8 22.5 -6.5t22.5 2.5t17 -3.5t7 -25.5q0 -35 -34 -35q-16 0 -26.5 3t-25.5 15q4 -15 -1 -22.5t-14 -11t-19 -3.5h-17q-26 0 -45 12t-32 30.5t-19 42t-6 46.5
zM8 750q0 -29 4 -62.5t16.5 -62.5t35.5 -48.5t61 -19.5t65 17t44 44t24.5 60.5t7.5 66.5v13q0 10 -0.5 21t-1 20.5t-0.5 13.5l-13.5 7l-20 10.5t-20.5 10t-14 6.5h-7h-10l-27 -3.5t-40.5 -5t-41 -5t-26.5 -3.5q-16 -4 -23.5 -13t-10.5 -20.5t-2.5 -23.5t0.5 -23zM611 899
q-28 0 -52 -15.5t-44 -40.5t-37 -57t-31 -64t-25.5 -61.5t-21.5 -50.5h17l10 11.5l26.5 30.5l36.5 43l40.5 48.5l39.5 47l33 39.5l10 13.5t15.5 20t15.5 20.5l10 14h-9t-12.5 0.5t-12.5 0.5h-9zM93 697q0 15 3.5 35.5t11.5 38.5t21 30.5t33 12.5q4 0 9.5 -0.5t11 -2t9.5 -5
t4 -10.5v-153q0 -9 -7 -12.5t-16 -5t-17 -1t-10 0.5q-21 0 -32 3.5t-15.5 12t-5 22t-0.5 34.5z" />
    <glyph glyph-name="ampersand" unicode="&#x26;" horiz-adv-x="732" 
d="M8 393q0 -33 10 -71.5t29.5 -73t48 -61t66.5 -35.5q6 0 20.5 -0.5t30.5 -0.5q17 0 31 -0.5t20 -0.5q52 0 88 11t63.5 24l49 24t44.5 11h9q1 0 6 -3l10.5 -6l10.5 -5.5t7 -2.5l3.5 -0.5t5.5 -0.5q10 0 15 8.5t9.5 18t12 18t21.5 8.5q36 0 36 -35q0 -23 -16.5 -33.5
t-35.5 -17.5q2 -1 12 -2t13 -1q33 0 53 18t40 53q-8 11 -25 21l-34 20.5t-30 23t-13 27.5v9q1 4 6 19l11 32l11 32t6 19q1 1 1 7v10q0 17 -11 28t-27 17t-33.5 7.5t-30.5 -1.5q-3 -1 -10.5 -8.5t-15.5 -16.5l-15.5 -17t-9.5 -9q0 -1 -3 -1.5t-5 -0.5q-10 0 -25.5 15.5
t-30.5 34t-26 35t-12 18.5q-2 9 7 22.5t24.5 31l34 39t34.5 46.5t27 53t11 58q0 27 -4.5 55t-16.5 50.5t-34 37t-57 14.5q-49 0 -107 -12.5t-108 -39t-83.5 -68.5t-33.5 -100q0 -22 8.5 -40.5t18 -35.5l18 -33.5t8.5 -34.5v-5t-1 -4q-29 -20 -54 -39.5t-43.5 -42.5
t-29 -51.5t-10.5 -65.5zM125 412q0 19 6 36.5t17 30.5t27.5 21t37.5 8h17l27.5 -27l41 -40.5l40.5 -41l27 -27.5l7 -10t10 -15l9.5 -15.5t6.5 -10.5q-8 -13 -20 -22.5t-27 -16t-30.5 -10t-30.5 -3.5q-30 0 -59.5 10.5t-53 29t-38.5 45t-15 58.5zM246 780q0 20 9 33.5
t22.5 21.5t30 11.5t32.5 3.5q3 0 9 -0.5l12.5 -1t12.5 -1.5t8 -1q14 -15 16.5 -30t2.5 -33q0 -5 -0.5 -13t-1.5 -9l-84 -84q-24 19 -46.5 44.5t-22.5 58.5z" />
    <glyph glyph-name="quotesingle" unicode="'" horiz-adv-x="173" 
d="M5 654q0 -27 5 -61.5t17 -65t33.5 -51.5t54.5 -21q19 0 30.5 12t17 31t6.5 42t0 44.5t-2.5 39.5t-1.5 26q0 9 -0.5 24l-1 30t-1 26.5t-0.5 13.5l-17 17h-135v-10q34 0 51.5 -7.5t17.5 -41.5q0 -18 -5 -27.5t-14.5 -14t-23 -5.5t-31.5 -1z" />
    <glyph glyph-name="parenleft" unicode="(" horiz-adv-x="275" 
d="M9 449q0 -34 3.5 -80t13 -94.5t25.5 -96t41 -84.5t59.5 -60t81.5 -23q0 18 -8.5 37.5t-20.5 37.5l-24 35t-18 31q-26 57 -38.5 120t-12.5 126q0 66 24 126t53.5 119t53.5 118t24 122q-32 0 -62.5 -23t-55.5 -55.5t-43 -67.5t-27 -60q26 -9 39 -21t13 -39
q0 -20 -6.5 -31.5t-28.5 -11.5q-23 0 -33.5 16t-17.5 36q-18 -42 -26.5 -87t-8.5 -90z" />
    <glyph glyph-name="parenright" unicode=")" horiz-adv-x="258" 
d="M10 17q2 -9 9 -13t15 -5.5t16.5 -1t13.5 0.5q35 0 62.5 23.5t48 61t35 84t23 93t12.5 87.5t4 68q0 37 -5.5 91t-17.5 113.5t-31 118t-46 105.5t-62 76.5t-80 29.5q0 -56 19 -114.5t42.5 -120t42.5 -127t19 -135.5q0 -58 -10.5 -113.5t-27.5 -109.5t-38.5 -106.5zM161 389
q0 36 35 36t35 -36q0 -35 -35 -35t-35 35z" />
    <glyph glyph-name="asterisk" unicode="*" horiz-adv-x="309" 
d="M61 627q0 -1 4 -5.5t9.5 -10l11 -10.5t9.5 -8q7 -5 19.5 -12t14.5 -5l67 102l68 -102q4 0 10.5 6.5t6.5 10.5q0 1 -2.5 6l-5.5 11t-6 10.5t-3 6.5q0 1 -0.5 4t-0.5 5t0.5 5l0.5 3q1 1 6 4t10.5 5.5l10.5 5t7 2.5l-34 68l17 16q-2 1 -8.5 1.5t-8.5 0.5q-12 0 -19.5 -6
t-14 -12.5t-14 -12.5t-19.5 -6q-8 0 -21 2.5t-13 16.5v135h-17v-34h-51v-32q-2 0 -8.5 -1t-8.5 -1q-2 1 -9.5 3.5l-16 5.5l-16 5.5t-9.5 2.5t-8.5 -6.5t-8.5 -10.5l-0.5 -3t-0.5 -5q0 -1 0.5 -4t0.5 -5l14 -4t31.5 -10.5t34 -16t22.5 -19.5q0 -1 0.5 -4t0.5 -5t-0.5 -5
l-0.5 -3q-1 -2 -6 -9.5l-11 -16l-11 -16t-6 -9.5q-5 -7 -11 -20t-6 -14z" />
    <glyph glyph-name="plus" unicode="+" horiz-adv-x="512" 
d="M205 347v-212h110q1 37 1.5 62t3 44.5t9 37.5t20.5 42q3 6 9.5 16t7.5 10h135v84h-152q-3 0 -9.5 10t-7.5 16v9v16v16v10q-2 11 -4.5 28.5l-5 33.5t-5 27.5l-2.5 11.5h-110v-178h-201q0 -3 0.5 -11.5t1.5 -18t2 -18t2 -11.5q2 -6 8 -15.5t9 -9.5h178zM263 372q0 35 35 35
t35 -35t-35 -35t-35 35z" />
    <glyph glyph-name="comma" unicode="," horiz-adv-x="105" 
d="M10 107v-123q0 -8 5.5 -11.5t12.5 -5t14 -1.5h10q30 0 37 12.5t7 41.5q0 11 -8.5 26t-21.5 28.5t-28 23t-28 9.5z" />
    <glyph glyph-name="minus" unicode="-" horiz-adv-x="275" 
d="M27 356q-11 -11 -16 -32t-6.5 -42.5t-1 -40t0.5 -24.5q46 0 88 4.5t87 15.5q-3 13 -3.5 25.5t3 22t12 15.5t22.5 6q23 0 33.5 -16t17.5 -36v121q-58 0 -119 -5.5t-118 -13.5z" />
    <glyph glyph-name="period" unicode="." horiz-adv-x="139" 
d="M9 87q0 -24 1 -46t8 -39t22.5 -27t44.5 -10q0 21 7 32.5t15 20.5l15 17.5t7 23.5q0 2 -0.5 5.5l-0.5 3.5q-11 34 -33.5 42.5t-60.5 8.5q-14 0 -19.5 -10t-5.5 -22z" />
    <glyph glyph-name="slash" unicode="/" horiz-adv-x="241" 
d="M95 406q-20 -28 -35.5 -71.5t-27 -90.5t-17.5 -92t-6 -77q0 -2 0.5 -12t0.5 -13q7 11 19 37t25 59l26.5 69.5l24.5 68.5t18 56t7 33q0 14 -6 24t-29 9zM111 497v-5q0 -2 1 -2q3 -2 10.5 -5t16 -6t15 -4.5t8.5 -1.5q9 2 18 20.5t17 45.5t15.5 60t13 64.5t8.5 59t3 43.5
q-39 0 -64 -31t-38.5 -74.5t-18.5 -89t-5 -74.5z" />
    <glyph glyph-name="zero" unicode="0" horiz-adv-x="563" 
d="M213 814q-18 -29 -52 -66.5t-67.5 -78.5t-58.5 -82.5t-25 -77.5v-305q0 -51 23.5 -94.5t61.5 -75.5t84.5 -50t93.5 -18q55 0 97.5 21t74 55.5t52.5 80t33.5 94.5t18 98.5t5.5 91.5q0 45 -5 92.5t-16.5 93t-31.5 86.5t-50.5 71.5t-72.5 48.5t-97 18q-4 0 -13.5 -0.5
t-20.5 -1t-20.5 -1t-13.5 -0.5zM179 103l-7 36.5t-10 56t-10 56t-6 37.5q-1 0 -1 3v6q0 13 1.5 47t6.5 76t13 88t21 84t31.5 62.5t44.5 24.5q43 0 67 -28.5t36 -68t14.5 -81.5t2.5 -69q0 -22 1 -57t-1 -76t-9.5 -82.5t-23.5 -75t-43.5 -54.5t-69.5 -21q-20 0 -33.5 5
t-24.5 31zM43 390q0 36 35 36t35 -36q0 -35 -35 -35t-35 35z" />
    <glyph glyph-name="one" unicode="1" horiz-adv-x="376" 
d="M196 506v-497q3 0 23 -1t45 0.5t49 7t35 17.5q2 10 4.5 36.5l5.5 56.5t5 56t2 37q0 19 1 60.5t1.5 94t1 111t1 111t1 94t0.5 60.5q-6 0 -24 -2.5t-38 -6.5t-38 -8t-24 -7q-4 -2 -16.5 -14t-26.5 -27l-26.5 -27.5l-15.5 -15.5q-39 -32 -68 -48.5t-49 -34t-30 -44.5
t-10 -80q2 0 11 1.5t11 2.5q6 2 28 12l48 21.5l48 21.5t28 12q1 1 4 1h5h4t4 -1zM245 117q0 36 36 36q35 0 35 -36q0 -35 -35 -35q-36 0 -36 35z" />
    <glyph glyph-name="two" unicode="2" horiz-adv-x="410" 
d="M10 67l92.5 -6.5t100.5 -6.5t101.5 -5t97.5 -2q0 5 -1 19t-2 18q-1 9 -3.5 22t-5.5 25l-5 20.5t-3 8.5h-220l47.5 52t52.5 60.5t49 65.5t37 67q0 6 0.5 20.5l1 30.5t0.5 30v21q0 44 -5 84t-21.5 70.5t-47.5 48.5t-83 18q-49 0 -82.5 -17t-54 -46.5t-29.5 -69t-9 -84.5
q26 0 43 7.5t29 18.5t21.5 24t20 24t25.5 18.5t38 7.5q36 0 61.5 -25.5t25.5 -62.5q0 -39 -20 -73.5t-50.5 -67.5t-66 -66t-66 -68t-50.5 -73.5t-20 -82.5q0 -3 0.5 -12.5t0.5 -12.5zM279 101q0 35 35 35q36 0 36 -35t-36 -35q-35 0 -35 35z" />
    <glyph glyph-name="three" unicode="3" horiz-adv-x="563" 
d="M10 153q9 -42 40 -74t71.5 -53t85.5 -32t83 -11q48 0 95 15t84.5 43.5t60.5 69.5t23 94q0 29 -8 44t-20 26.5t-27.5 25t-30.5 39.5q-1 1 -0.5 8.5t1 16.5t0.5 16q0 8 -1 10q-2 4 -8.5 11.5t-14.5 15.5t-15.5 14.5t-11.5 8.5q37 26 61.5 66t24.5 86q0 51 -15 92t-43 70
t-67 44.5t-88 15.5q-41 0 -87 -15.5t-85.5 -43t-65.5 -67t-26 -87.5q0 -1 0.5 -4t0.5 -4q29 -11 48.5 -14.5t46.5 -3.5q26 0 40.5 16.5t27.5 36t29 36t45 16.5q28 0 45 -12t26 -30.5t12 -42t3 -45.5q0 -42 -13.5 -63.5t-30 -35l-30 -24t-13.5 -29.5q0 -9 21.5 -27.5
t48 -47.5t48 -69.5t21.5 -93.5q0 -42 -17.5 -60t-59.5 -18q-30 0 -55 13.5t-47.5 30t-45 30.5t-46.5 14h-11q-7 0 -8 -1q-6 -1 -20.5 -3l-31 -4.5t-30.5 -5.5t-20 -4zM449 170q0 35 35 35t35 -35t-35 -35t-35 35z" />
    <glyph glyph-name="four" unicode="4" horiz-adv-x="580" 
d="M306 152v-119h144q1 0 3.5 4t5.5 9.5t5 11t3 9.5q10 35 14.5 54.5t12.5 30.5t24.5 17.5t50.5 15.5q0 3 0.5 10.5l1 15.5t0.5 15v10q0 33 -7 47.5t-17.5 19t-23 2.5t-23 -3.5t-17.5 1.5t-7 18v440q0 4 -10 10t-16 7q-1 0 -8 0.5t-16 1l-18.5 1t-14.5 0.5t-12 -0.5l-14 -1
t-12.5 -1l-5.5 -0.5q-3 -1 -8 -11t-10 -21.5l-10 -22l-6 -12.5l-31 -43.5l-47.5 -66.5l-56 -77.5l-56.5 -77l-48.5 -65.5l-31.5 -43q-27 -45 -33.5 -90t-6.5 -96h302zM381 101q0 35 36 35q35 0 35 -35t-35 -35q-36 0 -36 35zM315 524q0 -8 2 -18.5t6 -19.5t11.5 -15.5
t18.5 -6.5q0 -18 -5 -45.5t-12 -54.5l-13 -49t-8 -28q-5 -15 -32 -24t-59 -15t-60 -8.5t-35 -3.5v17q0 1 9 15l23.5 36l33 49.5l37 55.5l36 54l30.5 44l8.5 8.5z" />
    <glyph glyph-name="five" unicode="5" horiz-adv-x="478" 
d="M10 202q0 -32 15.5 -60t40 -49t54 -33t57.5 -12q53 0 105 11t93.5 35.5t67.5 64t26 97.5q0 85 -22 134t-62 74t-96 31t-125 6q0 2 -1 11.5t-1 11.5l4.5 20t12 44t16.5 43.5t18 19.5h176q0 4 -0.5 15t-1.5 23t-2.5 23t-2.5 15q0 4 -6.5 10.5t-9.5 6.5h-271l-17 -17
q-1 -1 -4 -17.5l-7.5 -42.5l-10 -59.5l-11 -67l-10.5 -65t-8 -53.5q0 -1 -0.5 -7t-0.5 -9q0 -2 0.5 -8.5t0.5 -8.5l13.5 -3.5l20 -5.5t20.5 -5t14 -3q0 -1 3 -1h6q15 0 28 6l26 12.5t26.5 12.5t30.5 6q31 0 50.5 -14t30.5 -35.5t15.5 -47t4.5 -49.5q0 -23 -3 -46.5
t-12.5 -42.5t-27 -30.5t-45.5 -11.5q-27 0 -44 14t-32 31.5t-32.5 31.5t-45.5 14q-5 0 -12.5 -0.5l-15 -1t-13 -1t-6.5 -0.5q-4 -1 -10.5 -7t-6.5 -10zM364 185q0 36 35 36t35 -36q0 -35 -35 -35t-35 35z" />
    <glyph glyph-name="six" unicode="6" 
d="M10 467q0 -42 7 -94t21 -105.5t37 -105t55 -91t74 -64t94 -24.5q12 0 27 0.5t29.5 4t26.5 10.5t19 20q-22 11 -29 21.5t-7 28.5q0 36 36 36q18 0 28.5 -7t21.5 -28q17 11 29.5 35.5t21 52.5t13 54.5t4.5 43.5q0 22 -8.5 49t-24 49.5t-37.5 38t-48 15.5q-7 0 -24 -2
t-36 -4.5t-36 -5.5t-23 -5q26 -14 45.5 -29t32 -33t19 -40.5t6.5 -52.5q0 -18 -3 -41.5t-11 -43.5t-23.5 -34t-40.5 -14h-4t-4 1q-47 34 -75 70t-28 92q0 26 7 48.5t15.5 44.5t15.5 46t7 54h-58q0 24 3.5 53.5t14 56t30 44t51.5 17.5q23 0 36.5 -13.5t24 -30t21 -30
t27.5 -13.5q2 0 5.5 0.5t4.5 0.5q4 1 16 3t25.5 5l25.5 5.5l17 3.5q1 3 1 12v13q0 31 -15.5 60.5t-40 52t-55.5 36t-61 13.5q-3 0 -9 -0.5l-6 -0.5q-1 -1 -3.5 -6t-5 -11t-5 -11t-3.5 -6q-2 -1 -12 -1t-21.5 0.5t-21.5 0.5h-13q-45 -6 -82.5 -28.5t-64 -56t-41.5 -75
t-15 -85.5z" />
    <glyph glyph-name="seven" unicode="7" horiz-adv-x="495" 
d="M298 610q0 -18 -15.5 -44t-36 -53l-40 -51t-27.5 -39q-29 -53 -49 -103t-33 -101.5t-19 -105t-6 -113.5h90q-19 7 -35.5 17.5t-16.5 33.5q0 17 9 24.5t21 13l23 11t16 19.5q14 41 25 82t24 81.5t29.5 80t40.5 77.5q24 37 58 77t65.5 82t54 87.5t22.5 94.5
q-3 0 -12.5 -0.5t-20.5 -0.5q-10 0 -19.5 -0.5t-12.5 -0.5q-14 -1 -43 -3.5t-66 -6l-77 -7l-77 -7t-66 -6.5t-43 -4q-22 -3 -33.5 -16.5t-17 -31.5t-6 -37.5t-0.5 -35.5q33 0 65.5 6l64.5 12.5l64.5 12.5t65.5 6h17t17 -1q-2 -1 -5 -5.5t-5.5 -10t-4.5 -10.5t-2 -8
q0 -2 8.5 -8t8.5 -8z" />
    <glyph glyph-name="eight" unicode="8" horiz-adv-x="495" 
d="M60 232q0 -42 7 -86.5t25.5 -80.5t50.5 -59.5t83 -23.5q42 0 87.5 16.5t84 46t63 70t24.5 89.5q0 16 -6.5 23t-16 9t-21.5 2q-11 0 -20.5 2t-16 8.5t-6.5 23.5q0 3 0.5 9.5t0.5 7.5q1 2 6 9.5l11 16l11 16t6 9.5q1 0 1 3v5v5t-1 3q-1 2 -6 9.5l-11 16l-11 16t-6 9.5
q0 1 -0.5 4t-0.5 5q0 8 8.5 21t18 29.5t18 36t8.5 40.5q0 40 -28 79.5t-68.5 71t-84.5 51.5t-76 20q-42 0 -76 -9t-58.5 -29t-38 -51.5t-13.5 -76.5q0 -9 8 -29.5t20 -47t26.5 -55l28 -53t24 -40.5t14.5 -18q-30 -20 -49.5 -54.5t-19.5 -69.5zM161 229q0 48 21 80.5t73 32.5
q31 0 50 -11.5t29.5 -30.5t13.5 -43.5t3 -50.5q0 -14 -1 -32t-6.5 -34t-18 -27t-35.5 -11q-60 0 -94.5 36t-34.5 91zM161 572q0 31 11.5 52.5t47.5 21.5q35 0 60 -21.5t40.5 -53t22.5 -67t7 -64.5q0 -19 -3 -29.5t-10.5 -15.5t-19.5 -6t-31 -1q-34 0 -58 18t-39 45.5
t-21.5 59.5t-6.5 61z" />
    <glyph glyph-name="nine" unicode="9" 
d="M44 186v-51q0 -2 11.5 -7t27.5 -10l33.5 -10t28.5 -7q2 0 24 -2.5t52 -5t60.5 -5.5t50.5 -4h9q58 0 93 23t54 60.5t25 84.5t6 95q0 50 -17.5 95.5t-47.5 84t-70 68.5t-86 48q-2 1 -9.5 3l-16.5 4.5t-16.5 5t-8.5 4.5q-17 16 -18 27t0.5 17t-1.5 8.5t-23 2.5
q-21 0 -24 -2.5t-1.5 -8.5t0 -17t-17.5 -27q-21 -21 -47.5 -34.5t-50 -30.5t-39.5 -44t-16 -75q0 -55 19.5 -94t53.5 -64t79 -36.5t96 -11.5q13 0 23 0.5t20 2.5t21.5 5t27.5 9q0 -4 0.5 -17t0.5 -17q0 -21 -7 -42t-20.5 -38.5t-32.5 -28t-43 -10.5q-26 0 -47.5 16t-37.5 36
h-118zM144 436q0 25 4 52.5t15 51t30.5 39t50.5 15.5q30 0 47.5 -7.5t26.5 -21.5t12 -35t3 -48q0 -22 -2.5 -45t-11.5 -41.5t-25.5 -30.5t-43.5 -12q-20 0 -39 4.5t-34 14.5t-24 26t-9 38zM398 406q0 35 35 35q36 0 36 -35t-36 -35q-35 0 -35 35z" />
    <glyph glyph-name="colon" unicode=":" horiz-adv-x="139" 
d="M8 577q0 -22 13.5 -31.5t32.5 -11.5t39.5 -0.5t34.5 1.5v108q0 3 -5.5 7t-13.5 6.5t-16.5 3.5t-14.5 0q-2 0 -4.5 -5t-5 -11t-4.5 -11.5t-3 -6.5q-6 -9 -15 -13.5l-17.5 -8.5t-14.5 -9.5t-6 -17.5z" />
    <glyph glyph-name="semicolon" unicode=";" horiz-adv-x="139" 
d="M10 84q0 -4 6.5 -10.5t10.5 -6.5q12 0 30 11.5t35 27t28 33t8 29.5q0 2 -5.5 7l-11.5 10.5l-11 10t-6 6.5q0 1 -1 7.5t-1 9.5q0 18 8 29t28 22q-5 1 -17 3t-25.5 5t-25.5 5t-16 3q-2 1 -8.5 1.5t-8.5 0.5v-86q13 2 20.5 -1.5t11 -10t4 -15t0.5 -15.5q0 -27 -11 -44
t-42 -32zM27 641v-108q3 0 19.5 -1t35 0.5t33 8.5t14.5 24l-13 12.5l-28.5 27l-29 26.5t-14.5 12q-2 0 -8.5 -0.5t-8.5 -1.5z" />
    <glyph glyph-name="less" unicode="&#x3c;" horiz-adv-x="631" 
d="M518 136q20 0 26.5 -8t7.5 -20t-0.5 -25.5t3.5 -25.5t19 -20t46 -8v123q0 4 -22.5 12.5t-58.5 21l-80.5 27t-87.5 30.5l-81 31.5t-60 29.5q18 27 64.5 47t103 37.5l112.5 34t93 34.5q0 3 0.5 11.5t1 18t0.5 17.5v12q0 10 0.5 22.5t-0.5 25.5t-5.5 24.5t-13.5 20.5
l-61 -23.5l-93 -35.5l-109 -42l-109 -42l-92.5 -36l-60.5 -24q-9 -3 -18 -7t-16.5 -10t-12 -14t-4.5 -20q0 -47 23.5 -82.5t61.5 -61.5t86 -45.5t97 -33.5t94.5 -25.5t78.5 -22.5q1 -1 4 -1.5t4 -0.5q10 0 15 8.5t10 18.5t12 18.5t22 8.5z" />
    <glyph glyph-name="equal" unicode="=" horiz-adv-x="478" 
d="M10 356v-119h440v102l-102 8.5t-81 5.5t-76.5 2.5t-87.5 0.5h-93zM229 288q0 35 35 35t35 -35t-35 -35t-35 35zM27 559q-9 -10 -14 -24t-7 -29.5t-2 -30.5v-24q12 0 38 0.5t58 1t68 1t68 1t58 1.5t38 1q22 1 46.5 0.5t44 4t32.5 16.5t13 38q0 3 -0.5 13t-0.5 13
q-41 7 -77 11t-70.5 5.5t-70.5 1.5h-78h-29q-20 0 -43 -0.5t-44 -0.5h-28z" />
    <glyph glyph-name="greater" unicode="&#x3e;" horiz-adv-x="427" 
d="M25 137q0 -20 2 -37t17 -33l304 152q-6 25 -3 39.5t13.5 22t27 10t37.5 2.5q0 5 -1 16t-2 23.5t-2 23.5t-2 16q-1 3 -28 17t-69 33l-91.5 41t-94.5 40t-79 30t-45 12q0 -58 14 -91.5t36.5 -52t49.5 -26.5t53.5 -15t49 -18.5t35.5 -37.5q-11 -21 -32 -33.5t-45.5 -21.5
t-50.5 -17t-46.5 -20t-34 -29.5t-13.5 -45.5z" />
    <glyph glyph-name="question" unicode="?" horiz-adv-x="597" 
d="M298 118v-102h51v102h-51zM279 238q0 -30 8 -42.5t39 -12.5q15 0 20.5 1.5t7.5 6.5t3 16t9 29q12 31 35.5 54.5t50 44l53.5 41t47 47.5q16 21 25 42t13.5 43t5.5 45.5t1 49.5q-39 0 -53.5 8t-20 20t-8 26.5t-16.5 26.5t-45.5 20t-95.5 8q-24 0 -59.5 -1t-74 -6t-77 -15
t-69.5 -27t-50 -42.5t-19 -62.5q0 -21 14 -31t33.5 -14.5t39.5 -4.5q21 0 33 -1q25 17 40 38t31 39t38 30.5t60 12.5q27 0 62 -11t66.5 -30.5t53.5 -46t22 -57.5t-16.5 -52t-41.5 -36.5t-53.5 -29.5t-53.5 -30.5t-41.5 -39t-16.5 -56.5z" />
    <glyph glyph-name="at" unicode="@" horiz-adv-x="953" 
d="M8 411q0 -102 38.5 -184.5t103.5 -140.5t152 -89.5t184 -31.5q33 0 77.5 5t92 16t95 28t87 41.5t67.5 57.5t37 74q-1 0 -4 0.5t-4 0.5q-40 0 -71.5 -11.5t-59 -28.5t-55 -37t-60.5 -37t-74.5 -28.5t-97.5 -11.5q-86 0 -163 29.5t-134.5 82.5t-91 126.5t-33.5 160.5
q0 46 11 96t32 98.5t51 91.5t68.5 76t84.5 52t99 19q75 0 134.5 -12t110 -38.5t96 -68.5t93.5 -102l3.5 -13.5l5.5 -20.5t5 -20.5t3 -13.5l0.5 -3t0.5 -5q0 -29 -13.5 -66t-35.5 -75.5t-50.5 -76t-58.5 -66.5t-59.5 -47t-53.5 -18q-36 0 -36 35q0 18 9 26.5t22.5 12t29 3
t29.5 -0.5q0 9 -3.5 14.5t-8 11.5t-8 14t-3.5 21q0 41 11 80t24.5 77t24.5 77t11 80q0 17 -4 26t-12 13t-19.5 4.5t-27.5 0.5q-4 0 -10.5 -0.5t-13.5 -0.5q-6 0 -11 -0.5l-5 -0.5q-2 -1 -6.5 -6.5t-10 -11.5l-10.5 -11t-7 -5q-3 0 -12.5 5l-21 11l-21.5 11.5t-13 6.5
q-1 0 -7 0.5t-14 0.5t-16 0.5t-13 0.5q-60 0 -110 -30.5t-86.5 -78t-56.5 -106t-20 -113.5q0 -39 12.5 -73t35.5 -58.5t55 -39t71 -14.5q19 0 34.5 6t29.5 12.5t28.5 12.5t31.5 6q11 0 22.5 -5.5t24 -12.5t26 -12.5t28.5 -5.5q49 0 94 16t83.5 43.5t70.5 65.5t54.5 81
t35 89.5t12.5 92.5q0 85 -30 149.5t-82 107.5t-121.5 64.5t-148.5 21.5q-108 0 -208 -39.5t-177 -109.5t-123 -166t-46 -208zM281 417q0 43 15.5 78.5t42.5 61.5t62.5 40.5t75.5 14.5q22 0 40.5 -9.5t30.5 -26t18 -38t3 -46.5q-4 -38 -19 -80t-40.5 -77t-60.5 -58t-78 -23
q-30 0 -48 17.5t-27.5 42.5t-12 53.5t-2.5 49.5z" />
    <glyph glyph-name="A" unicode="A" horiz-adv-x="681" 
d="M375 710h-145q-1 0 -10.5 -25l-24.5 -66l-33 -92.5l-36.5 -104.5l-35.5 -102l-29 -84q-20 -61 -37.5 -120t-17.5 -122q37 0 63 19t43.5 48t29 62t20.5 62q10 1 34 4t51 5.5t51 4.5t34 3h5q5 0 11 0.5t11 0.5h9q20 0 34.5 -1.5t30.5 -16.5q2 -7 9 -24l15 -35.5l15.5 -35.5
t11.5 -23q2 -4 7 -9.5l10.5 -11t10 -9.5t6.5 -4h152l-34 85q-7 -20 -17.5 -36t-33.5 -16q-35 0 -35 35q0 15 6 23t16 11.5t22.5 4.5t24.5 1v27zM315 541l8.5 -17l8.5 -17q4 -11 13.5 -40l20.5 -61.5l20.5 -61.5t12.5 -40h-176q0 24 6 58.5t17.5 70t28.5 65t40 43.5z" />
    <glyph glyph-name="B" unicode="B" horiz-adv-x="597" 
d="M10 118q19 -7 30 -14t17 -17.5t8 -24.5t2 -35q41 0 87 3.5t92 9.5t90 13t81 14q33 17 63.5 44t54.5 60t38.5 70.5t14.5 75.5q0 4 -0.5 12t-1.5 9l-85 85q3 1 9.5 7.5t7.5 9.5q5 19 13.5 40l17 42t15 41t6.5 38q0 21 -8.5 41.5t-23 37.5t-33 30t-38.5 18h-30
q-21 0 -45.5 0.5t-46.5 0.5h-30q-71 0 -137 -1t-134 -17q-2 -15 -5 -45.5l-6.5 -69l-7 -80.5l-7 -80.5t-5.5 -69l-3 -45.5v-15q0 -12 -0.5 -28.5t-0.5 -33.5v-25v-20t0.5 -30.5t0.5 -30.5v-20zM179 372q25 5 45.5 8.5t40 5.5t39 3t42.5 1q29 0 49 -14t33 -35.5t18.5 -48.5
t5.5 -53q0 -15 -2.5 -35.5t-9.5 -39.5t-21 -32.5t-36 -13.5h-227q0 11 0.5 40t1.5 61.5t2 61.5t2 40q0 3 2.5 10.5l5 15.5t5 15t4.5 10zM340 627h11q9 0 19 -0.5t18 -0.5h12q27 -9 31.5 -27.5t4.5 -40.5q0 -29 -15 -47t-38.5 -28t-52.5 -14t-57.5 -4.5t-53.5 1t-40 1.5v142
q0 1 11.5 3.5t28 5.5t34 5t28.5 3h8q8 0 17 0.5t18 0.5h16z" />
    <glyph glyph-name="C" unicode="C" horiz-adv-x="783" 
d="M9 420q0 -55 28 -110t74.5 -105t106 -94t122 -76t123 -50.5t108.5 -18.5q3 0 8.5 0.5t6.5 0.5q6 2 20.5 9t30.5 15.5l30.5 16t19.5 10.5q-19 7 -35.5 17.5t-16.5 33.5q0 35 35 35q23 0 33.5 -16.5t17.5 -35.5q26 16 39.5 48t13.5 62q0 3 -0.5 12.5t-1.5 12.5l-20 7
l-30.5 10.5l-31 10t-20.5 6.5q-1 0 -8.5 1t-10.5 1q-7 0 -23.5 -21.5t-41.5 -47.5t-59 -47.5t-76 -21.5q-53 0 -94 18t-71 48.5t-50.5 71t-33 85.5t-18 92.5t-5.5 91.5q0 38 25 72t60 47h18q14 0 28.5 0.5t27.5 0.5h19q48 0 83 -9t61 -22.5t45.5 -29.5l36 -29.5t32.5 -22.5
t34 -9q12 0 33 0.5t41 4t35 12.5t15 27q0 46 -24 78.5t-62.5 54t-87 34.5t-96.5 19.5t-91 8t-72 1.5h-25t-38.5 -0.5t-38.5 -0.5h-25q-55 -14 -93.5 -45.5t-63 -73t-36 -91t-11.5 -99.5z" />
    <glyph glyph-name="D" unicode="D" horiz-adv-x="681" 
d="M10 745v-778q0 -7 22.5 -14t57 -13.5t77.5 -12t83.5 -9.5t74.5 -6t51 -2q0 13 0.5 26.5t4 24t11.5 17.5t24 7t24 -7t11.5 -17.5t4 -23.5t0.5 -26q42 0 74.5 17.5t56.5 46t40 65.5t26 76t14 77.5t4 69.5v18q0 14 -0.5 28.5t-0.5 27.5v19q-11 18 -28 54.5l-37.5 79.5
t-45 88.5t-50.5 82.5t-54 60.5t-56 23.5h-389zM145 435q0 28 0.5 49t2 42t5 44.5t9.5 56.5q2 9 8.5 13t14.5 5t16 0.5t13 -0.5q88 0 144.5 -29t88 -79t43.5 -116.5t12 -140.5q0 -31 -1 -63t-7 -62.5t-20 -57t-41 -46.5h-59h-59q-14 1 -36.5 3.5t-44.5 5.5t-38 5t-17 3
l-17 17q0 1 -2.5 34t-5 79t-5.5 94.5t-4 80.5v62z" />
    <glyph glyph-name="E" unicode="E" horiz-adv-x="580" 
d="M588 695h-459q-1 0 -7.5 -28t-15.5 -73l-20 -102l-22 -115.5l-21 -113t-16 -93.5q-1 -4 -3 -29t-5 -57.5t-5.5 -65t-3.5 -51.5q0 -3 -0.5 -12t-1 -19.5t-0.5 -19.5v-12q61 0 124.5 6.5t126.5 17.5t124.5 25.5t117.5 30.5q9 9 13.5 22.5t7 28t2.5 28.5v24
q-78 0 -153.5 -10t-153.5 -10h-15t-17.5 0.5t-15.5 0.5h-7l-16 17l1.5 12t4 28t5.5 33.5l5 28.5q4 17 7.5 36t10.5 35.5t18.5 29.5t31.5 18q11 3 33.5 8.5l51 12l59.5 14l59.5 14l51 11.5t33.5 7q8 3 12.5 9t7 13.5t3 15t0.5 13.5h-345v153q0 1 11.5 3t28 4.5l34 5t28.5 4.5
q18 2 46.5 0.5t60.5 -1.5q33 0 65.5 3t58.5 13.5t42.5 31t16.5 54.5zM161 -16q0 35 35 35q36 0 36 -35t-36 -35q-35 0 -35 35z" />
    <glyph glyph-name="F" unicode="F" horiz-adv-x="461" 
d="M7 677q0 -157 5.5 -314t31.5 -312q1 -6 3 -14.5t5 -16.5t5.5 -14t3.5 -6h101v180q-12 0 -24.5 1t-22.5 4.5t-16 11.5t-6 23q0 18 8 24.5t20 8.5t25 1.5t22.5 3t13.5 14t-3 33.5h203q9 0 13 7t5.5 16t1 17t-0.5 10q0 5 -0.5 17.5t-1.5 16.5q-9 1 -30.5 3t-45.5 5
l-45.5 5.5l-30.5 3.5t-23.5 4t-28 5.5t-23.5 5l-10 2.5v159q23 0 55 -4.5t67 -7.5t69.5 -2t61.5 11.5t44 33.5t17 64h-469z" />
    <glyph glyph-name="G" unicode="G" horiz-adv-x="715" 
d="M9 347q0 -44 15.5 -89t43 -87t64.5 -79.5t79.5 -65.5t88 -44t90.5 -16q28 0 71.5 5.5t88 18t82.5 32t55 47.5q13 75 17 151t4 153h-241q-3 0 -9.5 -6.5t-7.5 -10.5q-2 -11 -3.5 -29.5l-2.5 -31.5t-1 -15h139l5 -10.5t10.5 -25.5t8 -31t-2.5 -26q-11 -22 -38 -40.5
t-60 -32.5t-66.5 -22t-56.5 -8q-55 0 -93.5 24t-63 62t-36 85t-11.5 93q0 54 15 102t45 84t75.5 57t106.5 21q36 0 59 -4.5t42 -16.5t37.5 -32l44.5 -50q1 0 4 -0.5t4 -0.5q2 0 5 0.5l3 0.5q5 1 17 3t25.5 5l25.5 5.5l17 3.5q0 2 0.5 8.5t0.5 8.5q0 33 -15.5 59.5t-41 47.5
t-58 36t-66.5 25t-66.5 14.5t-57.5 4.5q-80 0 -151.5 -28.5t-124.5 -79.5t-84 -121t-31 -154zM110 509q0 35 35 35q36 0 36 -35t-36 -35q-35 0 -35 35z" />
    <glyph glyph-name="H" unicode="H" horiz-adv-x="631" 
d="M44 712q-27 -177 -35 -356t-8 -356h111l25 34v305q0 1 12.5 3.5t30 5.5t36.5 5t31 3q3 0 17 0.5t32 1t35 0.5h28h19t24 -0.5t21 -1t11 -0.5l17 -17q0 -10 1 -29.5t3 -44.5t3.5 -53t3.5 -53l3.5 -44.5t2.5 -29.5t3 -24.5t5 -28l5 -23t3 -9.5h140q0 191 -4 381.5t-17 381.5
h-144v-272h-305v272q-6 0 -19 -1.5t-28 -4.5t-28 -6t-18 -5q-3 -1 -6 -5.5t-6 -10t-4.5 -10.5t-0.5 -8zM500 85q0 35 35 35t35 -35t-35 -35t-35 35z" />
    <glyph glyph-name="I" unicode="I" horiz-adv-x="190" 
d="M27 -16q4 -16 17.5 -17t24.5 -1t24.5 1t17.5 17q0 102 12.5 202t27 199t26.5 198.5t12 201.5q-17 0 -42.5 1t-50.5 -3t-44.5 -16t-24.5 -39q-9 -47 -12.5 -88.5t-5 -82.5t-1 -83.5t0.5 -90.5v-104t1.5 -95.5t5 -96t11.5 -103.5zM59 440q0 36 36 36q35 0 35 -36
q0 -35 -35 -35q-36 0 -36 35z" />
    <glyph glyph-name="J" unicode="J" horiz-adv-x="461" 
d="M9 197q0 -38 13.5 -76t38.5 -69t59 -50t75 -19q21 0 48.5 2.5t56 9t55.5 18t48 28.5t34 40.5t13 54.5v627h-139q0 -103 10.5 -205t10.5 -205q0 -29 -3.5 -71.5t-15.5 -82.5t-36 -68.5t-64 -28.5q-26 0 -41 10t-23.5 25.5t-13.5 33.5t-11.5 33.5t-17.5 25.5t-31 10
q-16 0 -28.5 -0.5t-20.5 -4t-12.5 -12.5t-4.5 -26zM364 306q0 35 35 35t35 -35q0 -36 -35 -36t-35 36z" />
    <glyph glyph-name="K" unicode="K" horiz-adv-x="648" 
d="M27 1q1 -11 11 -15t21.5 -5t22 0t12.5 1q5 0 13.5 0.5t16.5 0.5q9 0 15 0.5t7 0.5q5 1 15 7.5t10 9.5v220q0 11 17 31.5t39 40.5t42.5 34.5t27.5 14.5q24 0 43 -22.5t35 -57t30.5 -74t29.5 -74t31 -57t35 -22.5h119l17 17l-237 390v50q16 18 45 46.5t57.5 62t50 69.5
t21.5 68q-62 0 -101 -14.5t-64.5 -37t-43.5 -50.5t-37.5 -55t-45.5 -51t-69 -38q-4 -1 -17 -7.5t-17 -9.5l-3.5 46.5t-6.5 72.5t-10 76.5t-13 59.5q-2 4 -8.5 10.5t-8.5 6.5h-122q0 -94 4 -187t8.5 -186t7.5 -186t0 -187zM466 153q0 36 35 36q36 0 36 -36q0 -35 -36 -35
q-35 0 -35 35z" />
    <glyph glyph-name="L" unicode="L" horiz-adv-x="614" 
d="M42 468v-20q0 -13 0.5 -28t1 -28t0.5 -19q1 -24 2.5 -57t3.5 -69t3.5 -71t3.5 -62.5t3 -45l1 -17.5l17 -17l25.5 -2l66.5 -5l92.5 -7t104 -7.5l101.5 -7t84 -5.5q3 0 11.5 -0.5t17.5 -0.5t17.5 -0.5t11.5 -0.5q0 5 -1 17.5l-2 26l-2 26t-2 17.5t-7.5 15t-9.5 10h-407
l-35 602h-136q0 -4 1 -17t1 -17q1 -9 3 -30.5t5 -46l5.5 -46l3.5 -30.5q14 12 24.5 15t26.5 3q35 0 35 -35q0 -15 -6.5 -23t-16.5 -12t-22.5 -4.5t-25.5 -0.5z" />
    <glyph glyph-name="M" unicode="M" horiz-adv-x="698" 
d="M10 627v-643h127v508q2 -3 6 -10t8 -15t7 -15.5t4 -10.5l12.5 -49l18.5 -74.5l21 -87.5l21 -88l17.5 -75t11.5 -49l17 -34h109l128 474h25v-474h110q1 0 3 17.5t5 41.5t5.5 50t3.5 43l7.5 112t6 101.5t3.5 99.5t1 105v19q0 13 -0.5 24.5t-0.5 19.5v10l-17 17
q-1 1 -19 -0.5t-42 -4t-49.5 -6t-41.5 -6.5q-3 0 -10.5 -3.5t-16 -8.5t-15.5 -11t-9 -11l-118 -338l-17 -17l-18 77.5t-24.5 100t-29 104t-30.5 90.5q-37 17 -71 18t-73 1h-15t-23 -0.5l-23 -1t-15 -0.5zM330 119q0 36 35 36q36 0 36 -36q0 -35 -36 -35q-35 0 -35 35z" />
    <glyph glyph-name="N" unicode="N" horiz-adv-x="665" 
d="M179 458l95 -151.5l92 -153.5l24 -39.5l29 -47l29.5 -48.5l26.5 -43l19 -30.5t8 -11.5h118l14.5 200.5t12.5 216.5t8.5 219.5t3.5 210.5h-129q0 -51 6.5 -101.5t14 -101t14 -101t6.5 -102.5v-21q0 -14 -0.5 -30.5t-1 -30.5t-0.5 -20q-5 16 -18.5 37t-28.5 41.5t-28.5 36
t-17.5 21.5v-136l-25 17l-221 424l-17 17q-1 0 -7 0.5t-14 0.5q-7 0 -15 0.5t-12 0.5q-67 0 -99 -29.5t-44 -76.5t-11.5 -104.5t-0.5 -113.5q0 -6 -0.5 -36.5t-1 -69.5t-0.5 -77v-59v-43q0 -26 0.5 -52.5t1 -46.5t0.5 -23l17 -51h136v475zM195 560q0 35 35 35q36 0 36 -35
t-36 -35q-35 0 -35 35z" />
    <glyph glyph-name="O" unicode="O" horiz-adv-x="614" 
d="M9 339q0 -85 6 -143.5t31 -95t76.5 -52.5t142.5 -16q109 0 175.5 37.5t102.5 102t48 151.5t12 186q0 68 -23.5 111t-62.5 67t-89.5 33t-104.5 9q-87 0 -147 -30.5t-97 -83.5t-53.5 -124t-16.5 -152zM144 118q0 4 0.5 10t1.5 7l6 6l11 10.5l11 10.5t5 7q0 14 -8 39.5
l-18 56t-18 63t-8 61.5q0 55 10 106.5t35.5 92t68 65t108.5 24.5q54 0 84.5 -23.5t46 -59.5t19.5 -78.5t4 -81.5q0 -77 -14 -134.5t-46.5 -96.5t-84.5 -60t-128 -25q-11 -22 -21.5 -29t-28.5 -7q-36 0 -36 36z" />
    <glyph glyph-name="P" unicode="P" horiz-adv-x="580" 
d="M10 746l85 -796q0 -5 17 -9t37.5 -6.5t39.5 -4t24 -1.5v326h237q34 0 57.5 28t37.5 66.5t20 78.5t6 63q0 19 -1 43.5t-6.5 48.5t-16 45t-29.5 33q-11 -21 -21.5 -28t-28.5 -7q-36 0 -36 36q0 18 7 28.5t28 21.5q-8 13 -22 21t-28 13q-33 2 -84 5.5t-107.5 6.5t-113.5 5
t-102 2v-19zM146 645h13q10 0 20.5 0.5t19.5 0.5h14q40 0 79.5 -9t71 -29.5t51 -53t19.5 -79.5q0 -21 -8.5 -37.5t-23 -27t-32.5 -16t-37 -5.5q-69 0 -104.5 17t-52 49.5t-20.5 80t-10 109.5z" />
    <glyph glyph-name="Q" unicode="Q" horiz-adv-x="648" 
d="M518 1l102 -51q2 -2 8.5 5t8.5 12q1 1 1.5 12t0.5 16t-0.5 13.5t-1.5 9.5q-2 3 -12 13l-21.5 21l-22 21t-12.5 13v7q0 38 5.5 75t12.5 74.5t12.5 75t5.5 76.5q0 78 -8 140t-36.5 105.5t-84.5 67t-152 23.5q-83 0 -143 -35t-98 -92.5t-56 -130.5t-18 -149
q0 -115 44.5 -181.5t117 -99.5t163.5 -39.5t184 -1.5zM213 136q-2 0 -6.5 -5l-10 -11l-10.5 -11t-7 -6q0 -1 -6.5 -1.5t-9.5 -0.5q-36 0 -36 35q0 23 16.5 33.5t35.5 17.5l-3.5 20.5l-5 30.5l-5 30.5t-2.5 20.5q-1 1 -1 7v10q0 54 12.5 108.5t39.5 99t70 72t104 27.5
q48 0 80 -17.5t51 -48t27 -70.5t8 -85q0 -30 -1 -61.5t-6.5 -62.5t-16 -60t-29.5 -55q-4 4 -16 11.5l-25.5 15.5l-25.5 15t-17 9q-1 1 -7.5 1.5t-9.5 0.5q-26 0 -31 -15.5t-5 -37.5q0 -5 -0.5 -13t1 -15.5t5.5 -14t13 -7.5q-2 -3 -8.5 -9.5t-8.5 -7.5q0 -1 -3 -1h-5
q-19 0 -38 8t-37 17.5t-36 17.5t-34 8z" />
    <glyph glyph-name="R" unicode="R" horiz-adv-x="648" 
d="M27 1l17 -3.5l25.5 -5.5t25.5 -5t17 -3q1 0 8 -0.5t10 -0.5q4 0 10.5 0.5t13.5 2t12 5t5 10.5v278q6 0 22 2l33.5 4t33 3.5t21.5 0.5q40 -8 69.5 -32.5t52 -56.5t40.5 -67.5t35 -65t35.5 -49t42.5 -19.5q5 0 18.5 -0.5t28 2t25.5 8t11 17.5q0 2 -0.5 5t-1.5 4
q-21 48 -40.5 82.5t-40 63.5l-42 58t-46.5 67q-1 1 -1.5 4t-0.5 5q0 7 21.5 21.5t48 39t48 58.5t21.5 80q0 77 -29.5 126.5t-78.5 78t-111.5 40t-128.5 14t-130.5 0t-116.5 -2.5v-51q13 0 25 -1t22 -4.5t16 -11.5t6 -23t-6.5 -23.5t-17 -12t-23.5 -4t-26 -0.5
q0 -161 5 -319.5t16 -318.5zM179 459v169q0 1 6 3t14 5t16.5 5.5t14.5 3.5q1 0 7.5 0.5t9.5 0.5t9.5 -0.5t7.5 -0.5q10 -2 37 -6.5t56.5 -10l56 -10.5l37.5 -7q11 -9 23 -20t22 -23.5t16.5 -27.5t6.5 -31q0 -14 -6 -29t-16.5 -27.5t-24 -20.5t-29.5 -8q-2 0 -5 0.5t-4 0.5
q-27 1 -67 4t-78 5.5t-65.5 5l-27.5 2.5z" />
    <glyph glyph-name="S" unicode="S" horiz-adv-x="648" 
d="M4 252q0 -139 75.5 -212.5t209.5 -73.5q63 0 125.5 16.5t112.5 50.5t81 86t31 122q0 64 -32.5 106.5t-82 68t-108.5 36t-112 10.5q0 -13 -0.5 -26t-4 -23.5t-12 -17t-23.5 -6.5q-35 0 -35 36q0 19 6.5 29t28.5 21l-118 51q-2 1 -3 9t-1 13q0 31 17 48t41.5 24.5t52.5 8.5
t50 1q33 0 58 -11t48 -24.5t46 -24.5t51 -11q32 0 57 2.5t57 15.5q0 2 0.5 8.5t0.5 8.5q0 33 -13.5 58.5t-35.5 44.5t-50.5 32t-59 21t-60 11.5t-53.5 3.5q-56 0 -111 -14t-98.5 -43.5t-70.5 -74.5t-27 -107q0 -52 17.5 -85t46.5 -54t66 -32.5t75.5 -19t75.5 -14t66 -18
t46.5 -30t17.5 -50.5q0 -30 -14.5 -47.5t-36.5 -26.5t-48.5 -11.5t-50.5 -2.5q-37 0 -65.5 8.5t-52 21.5t-43.5 28.5t-41 28.5t-44.5 21.5t-52.5 8.5z" />
    <glyph glyph-name="T" unicode="T" horiz-adv-x="631" 
d="M10 728q0 -5 2.5 -17t5 -25.5t5 -25.5t4.5 -17q2 -6 8.5 -15.5t8.5 -9.5h152q12 0 21.5 -16t16 -36t10 -37.5t3.5 -20.5v-458h102l3.5 40l5.5 61.5t5 61.5t3 40v20q0 13 -8 19t-18 11t-18 12t-8 23q0 23 16 33.5t36 17.5q0 11 1.5 39t5 61.5t10 66t17.5 53.5q9 1 30.5 3
t46 5l46 5.5t29.5 3.5t19.5 3.5t22.5 5.5l18.5 5t7.5 3v34q-19 2 -58.5 6.5t-90 9.5l-105.5 10.5l-105.5 10.5t-90 8.5t-58.5 5.5h-8q-6 0 -14 0.5t-17 0.5h-12h-10t-15.5 -0.5t-15.5 -0.5h-10z" />
    <glyph glyph-name="U" unicode="U" horiz-adv-x="631" 
d="M10 202q15 -57 46 -91t73 -51.5t92 -23t103 -5.5q26 0 58 2.5t64.5 9t64 18.5t55.5 31t39 46t15 64v424l-17 51q0 1 -11.5 3t-28 4.5l-34 5t-28.5 4.5q-5 1 -21 1.5t-21 0.5v-477q0 -19 -18 -32t-42 -21.5t-48.5 -12t-37.5 -3.5q-33 0 -55.5 10.5t-39.5 27.5t-31.5 38.5
t-32.5 43.5v445q-32 0 -64 -5t-63 -16q-8 -43 -12 -82.5t-5.5 -78t-1 -78.5t0.5 -83v-34t0.5 -51t0.5 -51v-34zM161 118q0 35 35 35q36 0 36 -35t-36 -35q-35 0 -35 35z" />
    <glyph glyph-name="V" unicode="V" horiz-adv-x="631" 
d="M10 677q5 -10 14.5 -31l21 -48l24.5 -56.5l24.5 -56l21 -48t13.5 -31.5l12 -32.5l21 -58l26 -70.5l26 -70.5l21 -58l12 -32.5t9.5 -21t7.5 -13h136q2 0 8.5 6.5t8.5 10.5l12.5 24l16.5 32l14.5 29.5t7.5 16.5l152 491q1 3 -5.5 9.5t-11.5 7.5l-5.5 0.5t-12.5 0.5
q-6 0 -13 0.5t-11 0.5q-36 0 -59 -28t-40 -72.5t-30.5 -98t-28.5 -105t-36 -93.5t-52 -63q-9 19 -15.5 41.5t-1.5 43.5q-4 11 -11.5 35l-17.5 54.5l-21 63.5l-21 63l-18.5 54l-12.5 35l-11.5 31.5t-13.5 27.5t-19.5 19.5t-29.5 7.5q-31 0 -54.5 -4t-57.5 -14zM77 626
q0 35 35 35t35 -35t-35 -35t-35 35z" />
    <glyph glyph-name="W" unicode="W" horiz-adv-x="1004" 
d="M150 -16h155l163 525l17 17q14 -27 29.5 -78t31 -111l30.5 -123l27 -114t21 -83.5t13 -32.5h170q23 165 65 334.5t87 326.5q18 26 27 59.5t9 64.5h-35t-41.5 -2t-42 -6.5t-35.5 -13.5q-4 -15 -11.5 -45.5l-17.5 -69l-21 -81l-21.5 -81l-18.5 -69t-12 -44.5l-6.5 -17
l-10 -25.5l-10.5 -26t-7 -16.5l-17 17l-106 441h-131q-2 -9 -9 -31l-15 -46.5l-15.5 -46t-11.5 -29.5l-28.5 -60l-35 -72.5l-36.5 -74.5l-33.5 -66.5l-25.5 -47.5t-11 -18h-17l-2.5 8t-5 18.5l-5.5 22t-4 19.5l-7 44.5t-10 66.5t-10 66t-6 43q-2 10 -4.5 34t-5 51t-5 51
t-2.5 34l-17 17h-123q0 -39 5 -77t16 -76q14 12 25 15t26 3q35 0 35 -35q0 -15 -6 -23t-16 -11.5t-22 -4.5t-25 -1v-61z" />
    <glyph glyph-name="X" unicode="X" horiz-adv-x="648" 
d="M10 1v-40h36t46 2t47.5 6.5t39.5 14.5q45 56 88.5 116t81.5 121h17q6 -11 23 -37.5l36 -56l36 -56t24 -36.5q3 -4 8 -9.5l10 -11t9.5 -9.5t5.5 -4h124q0 14 -4 30.5t-10 32.5t-13 30.5l-12 25.5q-7 -20 -17.5 -36.5t-33.5 -16.5q-35 0 -35 36q0 15 6 23t15.5 11.5t22 4.5
t25.5 1v10l-126 289l160 355q-16 15 -32 17t-36 2q-27 0 -45.5 -15.5t-33 -38t-26 -49.5t-24.5 -49.5t-28.5 -38t-37.5 -15.5q-1 0 -4 0.5t-4 0.5q-40 48 -70 100t-66 103q-2 1 -12 1h-13q-27 0 -45 -3.5t-48 -14.5q5 -11 16 -33l24.5 -50.5l28 -60l27.5 -60l23.5 -51
l15.5 -33.5q10 -21 14 -35t4 -34v-9t-1 -6q-2 -6 -11 -24.5l-19.5 -40l-21 -42t-16.5 -29.5l-19 -33.5l-29.5 -51l-35 -60l-35.5 -59.5l-30.5 -50.5t-19.5 -33.5z" />
    <glyph glyph-name="Y" unicode="Y" horiz-adv-x="698" 
d="M264 355q1 -17 0 -46.5t-0.5 -63.5t4 -69t13.5 -63.5t28 -46.5t48 -18q5 0 21 1t21 1q0 10 1 31.5t3 48t3.5 56t3.5 56l3.5 48t2.5 31.5q1 6 3 16.5t5 21l5.5 19.5t3.5 11l254 389h-12q-8 0 -17.5 0.5t-18.5 0.5h-11q-46 0 -74.5 -12.5t-48.5 -33t-34 -47l-30 -54.5
t-37 -56.5t-55 -51.5q-2 1 -7 6l-10.5 10.5l-10.5 10.5t-6 7q-4 4 -14 18.5l-24 33.5l-30 41l-30 41l-24.5 33t-13.5 19q-12 16 -33.5 24t-46 11.5t-48.5 3.5h-41v-22zM313 448q0 20 6.5 31.5t29.5 11.5q22 0 28.5 -11.5t6.5 -31.5t-6.5 -32t-28.5 -12q-23 0 -29.5 12
t-6.5 32z" />
    <glyph glyph-name="Z" unicode="Z" horiz-adv-x="698" 
d="M10 -16h660q3 0 9.5 6.5t7.5 10.5q1 5 2 17t2 25.5t2 25.5t1 17h-447q10 12 13.5 24t5 25t4 25.5t11.5 26.5l41 64.5l63 99l73.5 116l73.5 116l63 99l41 64.5v118q0 3 -6.5 9.5t-10.5 7.5q-36 10 -76.5 14.5t-81.5 5.5t-80.5 0t-74.5 -1h-42t-64 -0.5t-63.5 -1
t-41.5 -0.5q-4 -1 -10.5 -7t-6.5 -10q-1 -6 -2 -21.5t-2.5 -33t-2.5 -33.5t-1 -22h346q-1 -2 -3.5 -8l-5.5 -13t-5 -13t-3 -8v-9q0 -7 3 -11.5t6 -8.5t6 -8.5t3 -12.5q0 -20 -23.5 -62t-61 -95.5t-84 -113l-91.5 -113.5t-84.5 -96.5t-62.5 -62.5v-152zM466 746q0 35 35 35
t35 -35t-35 -35t-35 35z" />
    <glyph glyph-name="bracketleft" unicode="[" horiz-adv-x="292" 
d="M7 230q0 -17 0.5 -46.5l1 -58t1 -50.5t0.5 -25l17 -17h237v34q-38 4 -60.5 22.5t-34 45.5t-14.5 60.5t-1.5 68t4.5 68t3 61.5q0 60 0.5 110t2 98t5 98.5t10.5 112.5q7 11 20 19.5t27 14.5t28.5 10t26.5 7v85h-203q-2 0 -8.5 -6.5t-8.5 -10.5q-5 -6 -11.5 -19t-5.5 -15
q0 -2 5.5 -7l11.5 -10.5l11 -10.5l6 -6q0 -1 1 -7.5t1 -9.5q0 -12 -7.5 -26l-16.5 -30.5t-17.5 -36.5t-11.5 -42q-8 -71 -12.5 -127t-6 -109.5t-1.5 -111.5v-133z" />
    <glyph glyph-name="backslash" unicode="\" horiz-adv-x="207" 
d="M27 693l84 -524q0 -2 2.5 -7l5 -10.5l5 -10.5t4.5 -6q2 -2 5.5 -4.5t5.5 -2.5q0 30 9 44t20.5 23t20.5 18.5t9 29.5q0 5 -0.5 15t-1.5 12l-152 677q-3 12 -16 16.5t-22 4.5q0 -33 4.5 -68t9.5 -70t8 -69.5t-1 -67.5z" />
    <glyph glyph-name="bracketright" unicode="]" horiz-adv-x="292" 
d="M27 76v-59q0 -1 15.5 -3l37 -5t44.5 -5.5t38 -3.5q7 0 24 -1t36.5 -1.5t37 -1t24.5 -0.5q0 6 -0.5 21t-1 32t-1 32t-0.5 21q-2 47 -5.5 108.5l-7.5 130l-8.5 140l-8.5 139l-7.5 127t-6.5 104.5t-5 71.5l-2 26.5l-17 17q-1 0 -16.5 2.5t-37 5l-44 5t-37.5 4.5
q-4 0 -13.5 0.5t-20.5 0.5t-20.5 0.5t-13.5 0.5v-121q42 0 67.5 -9.5t39.5 -28.5t20 -48t9 -66q1 -14 2.5 -41.5t3 -63t3.5 -74t3.5 -73.5t2.5 -63t1 -41q20 -7 36.5 -18t16.5 -33q0 -18 -9.5 -26.5t-21.5 -15.5t-23.5 -16t-14.5 -27q-2 -8 -4.5 -28.5l-5.5 -43.5t-5 -43.5
t-2 -28.5h-102z" />
    <glyph glyph-name="asciicircum" unicode="^" horiz-adv-x="410" 
d="M263 669q0 -24 12.5 -47.5t32 -42t44 -30t47.5 -11.5v38l-85 169q-3 -11 -11.5 -20.5l-17 -19t-15.5 -18.5t-7 -18zM111 880q-5 -17 -15 -41.5l-21.5 -53.5l-24 -61t-22.5 -63t-16.5 -60t-6.5 -52q32 0 51 11t30.5 28.5t19 39.5t16 43.5t21.5 41t36 32.5l34 -34
q6 18 13.5 29t17 17.5t23.5 8.5t34 2q0 35 -17.5 57t-43.5 34.5t-56 17t-56 4.5q-2 0 -8.5 -0.5t-8.5 -0.5z" />
    <glyph glyph-name="underscore" unicode="_" horiz-adv-x="715" 
d="M44 -135q-15 3 -24.5 -5.5t-14 -20.5t-6 -25t-1.5 -20q39 0 88.5 -2t99.5 -0.5t97.5 10t82.5 29.5q10 6 13.5 15t6.5 17.5t9 14t21 5.5q23 0 33.5 -16t17.5 -36h220q3 0 9.5 6.5t7.5 10.5t2 14.5l2 22l2 22t1 14.5q-9 0 -31.5 -0.5t-48 -1.5t-48 -2t-31.5 -1
q-19 -2 -59 -5.5t-90 -8.5l-105.5 -10.5l-105.5 -10.5t-89.5 -9.5t-58.5 -6.5z" />
    <glyph glyph-name="a" unicode="a" horiz-adv-x="393" 
d="M9 117q0 -16 6.5 -30.5t16.5 -27t22 -23.5t24 -20q4 0 15 -0.5t23 -0.5t22.5 -0.5t15.5 -0.5q20 0 35 3t28 7t26 7t29 3q15 0 27.5 -4t25 -8.5t26.5 -8t32 -3.5q0 46 -4 87l-8 81.5t-6.5 83t0.5 92.5q-11 32 -36 52t-60 20q0 -3 -0.5 -11t-1.5 -16.5l-2 -16.5t-1 -11
q0 -1 -3 -6l-6 -10.5t-5.5 -11t-2.5 -6.5q0 -2 3 -9.5l6 -15.5t5.5 -15.5t2.5 -9.5q-4 -14 -24 -19t-48.5 -8t-60.5 -8t-59 -19.5t-45 -41.5t-18 -74zM109 160q0 27 17 44t41 27t50.5 15t46.5 7q-1 -23 3.5 -36.5t12 -21.5t17 -12.5t17.5 -10t13.5 -14t5.5 -24.5
q0 -35 -35 -35q-3 0 -9.5 0.5t-7.5 1.5q-2 0 -6.5 2.5t-10.5 5.5l-11 5.5t-6 2.5q-2 0 -8.5 -7.5t-8.5 -8.5q-4 -2 -11.5 -5t-16 -5.5l-15 -4.5t-8.5 -2q-13 0 -25.5 7.5t-22.5 18.5t-16 24.5t-6 25.5z" />
    <glyph glyph-name="b" unicode="b" 
d="M120 35q23 0 43 -6t39.5 -13t40 -13t46.5 -6q4 0 15 0.5t23.5 1t23 1t15.5 0.5q34 26 62.5 65t48 83.5t30.5 91.5t11 90q0 97 -46 155.5t-145 58.5q-25 0 -46.5 -7.5t-41.5 -16.5t-40.5 -16.5t-44.5 -7.5v255h-47q-25 0 -46.5 -6t-36 -21.5t-14.5 -46.5v-667q25 0 38.5 4
t23 8.5t20 8.5t28.5 4zM111 255q0 37 17.5 68.5t45.5 54t62 35t67 12.5q56 0 78 -27.5t22 -80.5q0 -34 -11 -72t-32 -70.5t-51.5 -53.5t-69.5 -21q-29 0 -52.5 14.5t-40 37t-26 50t-9.5 53.5zM60 491q0 35 35 35t35 -35t-35 -35t-35 35z" />
    <glyph glyph-name="c" unicode="c" horiz-adv-x="546" 
d="M8 332q0 -62 14 -121.5t44.5 -106.5t79 -76t118.5 -29q53 0 103.5 19t89.5 52.5t62.5 80.5t23.5 103h-143q-13 -18 -22.5 -34t-20 -27.5t-24 -18t-34.5 -6.5q-27 0 -47 5t-35.5 15.5t-28.5 26.5t-26 39q0 5 -0.5 18.5t-0.5 27.5q0 15 -0.5 28.5t-0.5 18.5q0 38 4.5 74
t19.5 63.5t42.5 44t73.5 16.5q21 0 33.5 -11t23 -24.5t21.5 -24.5t29 -11h10q4 1 20 1q17 0 36.5 3t37 9.5t24.5 20.5q0 1 0.5 4t0.5 5q0 17 -19.5 29.5t-49.5 21t-66 14t-69 8t-58.5 3.5t-34.5 1h-19q-13 0 -28 -0.5t-28 -0.5h-18q-44 -11 -71 -39.5t-42 -66t-20 -78.5
t-5 -77zM297 68q0 35 35 35t35 -35t-35 -35t-35 35z" />
    <glyph glyph-name="d" unicode="d" horiz-adv-x="478" 
d="M8 351q0 -53 10 -101t34 -85.5t63 -59.5t98 -22q18 0 36 5.5t35 12t33 12t32 5.5q14 0 29.5 -6l31 -12.5t32 -12.5t33.5 -6q0 17 -6.5 27t-15 18.5t-15 17.5t-6.5 23t3 26t6.5 23.5t6.5 24t3 27.5q0 20 0.5 59t-1 85t-7 94t-18 87.5t-33.5 64.5t-53 25q0 -39 -4 -58.5
t-9 -33t-9 -27t-4 -39.5q0 -29 6 -55.5l12.5 -53.5l12.5 -54t6 -56q0 -24 -4 -51.5t-15.5 -50.5t-31.5 -38t-52 -15q-43 0 -67 23.5t-36 58t-14.5 72.5t-2.5 68q0 40 3.5 66.5t16 43t36 25.5t64.5 16q-17 17 -40 17.5t-44 0.5q-48 0 -78 -13.5t-47 -38.5t-23.5 -60.5
t-6.5 -78.5z" />
    <glyph glyph-name="e" unicode="e" horiz-adv-x="597" 
d="M59 143q0 -30 30 -54t71 -40.5t82.5 -25t64.5 -8.5q32 0 61.5 7.5t57 20t55 28l54.5 30.5q1 1 3.5 6l5.5 10.5t5 10.5t3 7l0.5 3t0.5 5q0 1 -0.5 4t-0.5 5q-31 11 -53 14.5t-51 3.5q-24 0 -59 -11l-73 -24t-76.5 -24t-68.5 -11q-14 0 -29.5 4.5t-30 12t-27.5 17t-23 18.5
q-1 -2 -1.5 -5t-0.5 -4zM9 329q0 -46 5.5 -83t29.5 -78l17 43h101l17 42q9 0 27.5 -0.5t41.5 -0.5h50h49q24 0 42.5 0.5t27.5 0.5q14 1 36.5 3t44 5t37.5 5.5t17 3.5l34 34q1 1 -2.5 16.5t-9 37t-12 44.5l-10.5 38q-1 2 -6 13t-13.5 24t-14.5 13q-1 0 -6 -2.5l-10.5 -5.5
l-11 -6t-6.5 -3t-7.5 -0.5t-9.5 -0.5q-35 0 -35 35q0 16 3.5 26.5t15.5 24.5q-38 23 -73.5 29t-79.5 6q-60 0 -112.5 -18t-91.5 -52t-62 -83t-23 -111zM292 476q21 0 40.5 -8t34.5 -22t24.5 -33t9.5 -41q0 -2 -0.5 -8.5t-0.5 -8.5q-43 -3 -86 -9.5l-86.5 -12.5t-86.5 -10.5
t-86 -4.5q0 29 28 57.5t66.5 51t78.5 36t64 13.5z" />
    <glyph glyph-name="f" unicode="f" horiz-adv-x="275" 
d="M78 423l51 -390h17q1 0 3 11.5l5 28t5 33.5t3 29q1 7 2.5 29t3 51.5t3.5 63t3.5 63t2.5 52t2 29.5q2 21 9.5 31.5t17 15.5t20.5 6t19.5 4t14.5 10t6 22q0 28 -13.5 41t-30 25t-30 29t-13.5 53q0 16 9 27.5t22 20t28 13t26 6.5v112q-21 0 -55.5 -3.5t-67.5 -14.5
t-57 -31.5t-24 -54.5q0 -10 5.5 -16t12.5 -12t12.5 -12.5t5.5 -17.5q0 -21 -14 -33t-30.5 -22t-30 -23t-13.5 -37q0 -44 20.5 -74.5t49.5 -64.5z" />
    <glyph glyph-name="g" unicode="g" horiz-adv-x="563" 
d="M9 -24q0 -32 14 -52.5t36.5 -33t51 -18.5t58.5 -7.5t58 -1t49 0.5q57 0 107 15t88 44.5t60 72t22 98.5v11q0 9 -0.5 18.5t-0.5 17.5v12q-20 7 -36 17.5t-16 33.5q0 22 16 33t36 18v305q0 2 -6.5 8t-10.5 8q0 1 -3 1h-5q-27 0 -40 -3t-20.5 -9.5t-14 -16t-19.5 -22.5
q0 -1 -3 -1h-4q-22 0 -43.5 8.5t-43 18.5t-44.5 18t-48 6q-74 -5 -120.5 -25.5t-72.5 -56.5t-36 -86.5t-10 -116.5q0 -44 11.5 -82t35 -66t59 -44t82.5 -16q27 0 54 8t53.5 17.5t51.5 17.5t49 8q0 -49 1 -79t-9.5 -46t-38 -21.5t-83.5 -5.5q-30 0 -59 5.5t-58 12.5
t-57.5 12.5t-56.5 5.5q-22 0 -28 -11t-6 -31zM76 227q0 16 0.5 29.5t2.5 26.5t5.5 26t10.5 30q7 8 26 27.5l40.5 41.5l41 41t27.5 26q14 12 25 15t26 3q37 0 65.5 -13.5t48 -37t29.5 -54.5t10 -66q0 -45 -25 -77t-62 -52.5t-80 -30t-79 -9.5q-29 0 -50 2t-35 9.5t-20.5 22
t-6.5 40.5z" />
    <glyph glyph-name="h" unicode="h" horiz-adv-x="546" 
d="M256 474q51 0 82 -34t48.5 -85t25.5 -110t12.5 -110t9 -85t16.5 -34h85v373q0 46 -19.5 78.5t-51 53t-71 29.5t-79.5 9q-18 0 -35.5 -5.5t-34.5 -12t-33.5 -12t-31.5 -5.5q-6 0 -16 2t-19.5 4.5t-16.5 5.5t-7 5v254h-116q0 -97 4 -185t13 -173.5t23 -172t34 -180.5
q10 -20 28 -31t40 -11v364q0 14 13 26.5t31 21.5t36.5 14.5t29.5 5.5zM432 372q0 35 35 35t35 -35t-35 -35t-35 35z" />
    <glyph glyph-name="i" unicode="i" horiz-adv-x="139" 
d="M133 522h-106q-2 0 -4.5 -17.5t-5 -41.5t-4.5 -49.5t-3 -42.5q-1 -13 -1.5 -40t-1 -61l-1 -71.5l-1 -71.5t-1 -61t-0.5 -40q35 0 56.5 6t33 19.5t15.5 36t4 55.5v11q0 9 -0.5 18.5t-1 18t-0.5 11.5q-19 7 -35.5 17.5t-16.5 32.5q0 23 16.5 33.5t35.5 17.5q14 54 18 109.5
t4 109.5zM25 666q0 -27 5 -41t16.5 -19.5t31.5 -5.5h50v132h-50t-31.5 -6t-16.5 -19.5t-5 -40.5z" />
    <glyph glyph-name="j" unicode="j" horiz-adv-x="224" 
d="M128 -34q-3 -13 -13 -15.5t-23.5 -3t-29 -1.5t-28 -9.5t-21 -29t-8.5 -59.5h157l34 34l1 26.5t3 69t3.5 96t3.5 108t3.5 104.5t2.5 87v11q0 11 0.5 24.5t0.5 26.5v22v17t-0.5 25.5t-0.5 25.5v17q-5 14 -14 16t-20 2t-20 -2t-14 -16q-2 -8 -4.5 -27t-5 -40.5l-5 -41
t-2.5 -27.5q0 -17 -0.5 -51t-0.5 -78v-91v-92q0 -43 0.5 -77.5t0.5 -50.5zM213 734q-30 0 -45 -6t-22 -18.5t-7.5 -33t-0.5 -50.5h75v108z" />
    <glyph glyph-name="k" unicode="k" horiz-adv-x="597" 
d="M171 763h-49t-33 -5.5t-19.5 -20t-8.5 -43.5q-1 -14 -3.5 -41.5t-5.5 -57.5t-5 -55t-3 -33q-1 -5 -3.5 -22l-6 -39.5l-7.5 -48l-7.5 -48.5l-6 -40t-3.5 -22q-1 -9 -2 -27.5t-2 -41.5t-2 -49t-1.5 -49.5t-1 -42t-0.5 -27.5h128l17 17q0 10 1.5 34t4 51t5.5 51t5 33
q1 2 6 9.5l11 16l11.5 16t5.5 9.5q4 13 2 28t-1.5 28t7 21.5t26.5 8.5q27 0 46.5 -23t38 -58l38.5 -75.5t48.5 -75.5t69.5 -58t101 -23q0 10 -1 16.5t-3.5 12.5t-6.5 13l-9 16q-6 11 -19.5 33.5l-30 51l-35 59.5l-35 59.5l-30 51t-19.5 33.5q-1 2 -1.5 8.5t-0.5 8.5
q0 30 24.5 57.5t58 52l68 47.5t54.5 46h-152q-1 0 -20.5 -15.5l-46.5 -37l-55.5 -44.5l-47.5 -38q-12 -10 -21 -14.5t-18 -8t-20 -9.5t-26 -19v17v17q3 16 10 57l15 87l15.5 87l10.5 57h-12q-8 0 -17.5 0.5t-18.5 0.5h-11z" />
    <glyph glyph-name="l" unicode="l" horiz-adv-x="224" 
d="M6 778q0 -7 0.5 -24l1 -35.5t1.5 -35.5t1 -24q1 -24 5 -72.5l9 -110.5l10.5 -130l10.5 -130t9.5 -111l6.5 -72h135l17 17q0 1 0.5 12t1 25l1 28.5t0.5 22.5q0 10 -0.5 30.5l-1 41.5t-1 38.5t-0.5 21.5q-1 8 -3 34.5t-5 63l-6.5 79t-7.5 83t-7 75t-5 54.5q-1 13 -3.5 33.5
t-5.5 39.5l-5 32.5t-3 13.5h-156zM76 591q0 36 36 36q35 0 35 -36q0 -35 -35 -35q-36 0 -36 35z" />
    <glyph glyph-name="m" unicode="m" horiz-adv-x="851" 
d="M722 345q0 -47 -3.5 -94l-7 -94.5l-7 -94.5t-3.5 -95h141v27q0 19 -0.5 40.5l-1 41t-0.5 27.5q-1 14 -2 44.5t-2.5 69t-3.5 81t-3.5 81t-3 68.5t-2.5 45q-1 24 -13.5 46.5t-31.5 39.5t-42.5 26t-47.5 7q-38 -4 -66.5 -17.5t-54 -32.5t-49.5 -41.5t-51 -44.5q-1 0 -4 -0.5
t-4 -0.5q-18 0 -26.5 8.5t-17.5 19t-24 19t-47 8.5q-36 0 -65 -14t-53.5 -30.5l-46.5 -30.5t-43 -14q-10 0 -13.5 6t-6.5 12.5t-8 12.5t-19 6q-18 0 -32.5 -2.5t-29.5 -16.5q-5 -39 -8.5 -69t-5.5 -56.5t-3 -53t-1 -58.5q0 -31 1 -55t3 -48.5t5.5 -52l8.5 -64.5h119v305
q0 16 15.5 42t38.5 50.5t49.5 42t48.5 17.5q24 0 38 -14.5t21.5 -36.5t9.5 -48.5t2 -51.5q0 -24 -1.5 -43t-1.5 -26q0 -10 1 -29.5t3 -44.5t3.5 -53t3.5 -53l3.5 -45t2.5 -29h67l34 305q0 3 8 20l19 38.5l22.5 43t18.5 33.5q5 8 13.5 17.5t19 17t22 12.5t21.5 5
q23 0 40.5 -13t29.5 -33t18 -43t6 -42zM43 340q0 35 35 35t35 -35t-35 -35t-35 35z" />
    <glyph glyph-name="n" unicode="n" 
d="M357 -33h144q9 0 12.5 6t5 13.5t1 15t-0.5 10.5q0 7 -0.5 22t-0.5 18q-1 16 -2 49t-2.5 74.5t-3.5 88t-3.5 88t-3 74.5t-2.5 49q-26 35 -67.5 52t-84.5 17q-16 0 -35.5 -2.5t-38.5 -8.5t-35.5 -16t-26.5 -25q14 0 38 -9t47.5 -23t41 -32.5t17.5 -37.5v-423zM10 526v-542
h78q0 13 0.5 39.5t1 60t1.5 70t1.5 70t1 60t1.5 39.5q0 6 2 18t4.5 25.5t5.5 25t5 15.5q13 30 24 41.5t19.5 19t13 18.5t4.5 40h-163zM415 102q0 36 35 36t35 -36q0 -35 -35 -35t-35 35z" />
    <glyph glyph-name="o" unicode="o" horiz-adv-x="580" 
d="M8 264q0 -33 1 -76t10.5 -83.5t30.5 -73.5t62 -47q6 0 23 -0.5l35.5 -1l35.5 -1t24 -0.5q67 0 128.5 13t108.5 44t75 82t28 127q0 72 -30 133t-79.5 105t-113.5 69t-131 25q-64 0 -104.5 -29.5t-63.5 -75t-31.5 -101.5t-8.5 -109zM146 153q-9 -26 -21 -39t-39 -13
q-20 0 -31.5 6.5t-11.5 28.5q0 19 7.5 26t19.5 7.5t26.5 -2.5t27.5 -3q0 32 -6.5 59t-6.5 57q0 33 15 62.5t39.5 52t55 35.5t61.5 13q33 0 61 -18t48 -45.5t31.5 -61t11.5 -63.5q0 -31 -8.5 -67t-26.5 -66.5t-45 -50.5t-64 -20q-24 0 -44.5 9.5t-37.5 24.5t-32.5 33z" />
    <glyph glyph-name="p" unicode="p" horiz-adv-x="512" 
d="M44 475l-17 -17q-1 -1 -2 -23.5l-2.5 -59l-3.5 -83t-3.5 -93l-3 -90.5l-2.5 -75q0 -9 -0.5 -33.5l-1 -51.5t-0.5 -51v-33h104l2.5 9.5t5 23l5 28t4.5 24.5q1 7 3.5 26.5l5 41t5 40.5t2.5 27q16 -14 30.5 -21.5t29 -10.5t30.5 -3.5t34 -0.5q45 0 87 18.5t74.5 49.5
t52.5 72t20 86q0 48 -11 88t-35 68.5t-61.5 44.5t-89.5 16q-21 0 -40.5 -8t-38 -18t-36.5 -18t-37 -8h-5t-4 1q-2 1 -8 8.5t-8 8.5q-9 3 -23 6l-27.5 6t-23.5 4.5t-11 0.5zM111 374q0 34 34 34q41 0 83.5 -5.5t77 -22t56.5 -46.5t22 -80q0 -32 -8 -60t-24 -49t-41.5 -33
t-59.5 -12q-44 0 -71.5 31t-42.5 74.5t-20.5 90t-5.5 78.5z" />
    <glyph glyph-name="q" unicode="q" horiz-adv-x="495" 
d="M357 34v-203h133q0 148 -1.5 296.5t-21.5 296.5l-5.5 38.5t-11 29t-24.5 16.5t-44 0q-2 0 -6.5 -5l-10 -11l-10.5 -11.5t-6 -6.5q-1 0 -4 -0.5t-5 -0.5q-15 0 -30 8.5t-30 18t-31 18t-35 8.5q-56 0 -95 -19.5t-64 -53t-36 -78t-11 -93.5q0 -56 18.5 -104t52 -84t81 -56.5
t105.5 -20.5q20 0 35 9t36 9q2 0 10.5 -0.5t10.5 -0.5zM144 254q0 31 2.5 59t12.5 49t30.5 33.5t57.5 12.5q31 0 51 -12.5t31.5 -32.5t16 -46.5t4.5 -53.5t-5.5 -55.5t-18.5 -52t-34.5 -39t-52.5 -15.5q-35 0 -54 14t-28 35.5t-11 49t-2 54.5zM26 271q0 35 35 35t35 -35
t-35 -35t-35 35z" />
    <glyph glyph-name="r" unicode="r" horiz-adv-x="326" 
d="M27 457q-1 -14 -2.5 -43t-3 -66t-3.5 -77.5t-3.5 -77.5t-3 -66t-1.5 -43v-11t-0.5 -17.5t-0.5 -17.5v-11h25t34 1.5t34.5 6.5t26.5 15q11 52 15.5 106t4.5 108q-13 0 -25.5 0.5t-23 4t-17 12t-6.5 23.5q0 19 6.5 25t16.5 6t22 -1.5t24 4.5q2 1 9.5 8.5t15.5 16.5l15.5 17
t9.5 9q27 12 47 15t34 3.5t22.5 1.5t13.5 8.5t7 25.5t2 52q-38 0 -67 -16.5t-59 -38.5l-17 17h-152z" />
    <glyph glyph-name="s" unicode="s" horiz-adv-x="495" 
d="M8 152q0 -4 0.5 -10.5t1.5 -6.5q10 -20 34 -35.5t54.5 -27t65 -19.5t65 -12.5t53.5 -6.5t32 -2q4 0 18 0.5t33 2.5t40 5.5t38.5 9.5t29 14t11.5 20v135q0 20 -14.5 34.5t-37 24t-50 15t-53.5 8.5t-47 3.5t-31 0.5q-18 0 -28.5 -5.5t-18.5 -12.5t-17 -12.5t-24 -5.5
q-35 0 -35 34q0 36 16 61.5t42 42.5t57.5 25t63.5 8q22 0 39 -8.5t32 -18.5t30 -18.5t34 -8.5q3 0 12.5 1t12.5 2q-17 42 -41.5 65.5t-55.5 35.5t-69 15t-81 3q-34 0 -71.5 -7t-68.5 -23.5t-51 -44.5t-20 -70q0 -30 19 -51.5t46 -36.5t56 -24.5t49 -14.5q9 -2 27.5 -6.5
t42 -9.5l49.5 -10.5l49 -10.5t41.5 -8.5t27.5 -5.5q2 -4 3.5 -16.5t1.5 -16.5q0 -21 -7.5 -31.5t-20.5 -15t-29 -5t-32 -0.5q-34 0 -61.5 13.5t-52.5 29t-50.5 29t-55.5 13.5q-6 0 -20.5 -2l-31 -4.5t-30.5 -5.5t-20 -5q-1 -2 -1.5 -8t-0.5 -8z" />
    <glyph glyph-name="t" unicode="t" horiz-adv-x="224" 
d="M44 76q0 -45 24 -69.5t66 -24.5h12q13 0 28 1.5t27 5.5t12 12v78q-3 0 -10 1t-15.5 2t-15.5 2t-10 2q-4 1 -10.5 7.5t-6.5 8.5v339q14 3 15.5 15.5l3.5 28t11 31.5t38 26l-76 34v119q-28 1 -44.5 -15.5t-24.5 -39.5t-9 -48t2 -41h-51v-119h49l0.5 -10.5t1 -25.5t0.5 -31
v-26q0 -6 -1.5 -25.5t-3 -45.5t-4 -55.5t-4 -55.5t-3 -45.5t-1.5 -25.5v-10z" />
    <glyph glyph-name="u" unicode="u" horiz-adv-x="614" 
d="M9 217q0 -48 12 -93t36.5 -80.5t63 -56.5t92.5 -21q63 0 109.5 22.5t94.5 63.5q7 -15 14.5 -16t14.5 -1t12.5 -5t9.5 -29q3 0 10 -0.5t15 -1t15 -0.5h10q35 0 55.5 19t30 49.5t11 67.5t-0.5 74t-5.5 69.5t-3.5 52.5v42t-0.5 64t-1 64t-0.5 42q-2 10 -11.5 14.5t-21 5.5
t-22 0t-12.5 -1h-14q-8 0 -16.5 -0.5t-14.5 -1t-7 -0.5q-5 -1 -15 -7.5t-10 -9.5v-322q0 -24 -21.5 -46t-51.5 -38.5t-62 -26.5t-52 -10q-7 0 -21 0.5t-28 3.5t-24.5 10.5t-10.5 21.5v424h-144l-17 -34q-1 -2 -3 -29.5l-5 -65.5t-5.5 -77.5t-3.5 -64.5v-11t-0.5 -20.5
t-0.5 -23.5v-17zM432 103q0 35 36 35q35 0 35 -35q0 -36 -35 -36q-36 0 -36 36z" />
    <glyph glyph-name="v" unicode="v" horiz-adv-x="478" 
d="M7 527q0 -2 1 -10t2 -10q1 -5 8.5 -22l16.5 -37l16.5 -37.5t9.5 -21.5q3 -9 15.5 -43.5l27 -75l26.5 -75l15 -43.5q6 -15 11.5 -25.5t13 -16.5t17.5 -8.5t26 -2.5q5 0 13 -0.5t15.5 1t14 5.5t8.5 13q4 13 15.5 44.5l25 66.5l26 66t18.5 43q7 15 27 38l41 48.5t37 52
t16 47.5h-81q0 -25 -2 -39.5t-21 -27.5q-21 -14 -33.5 -34t-21 -42.5t-14 -46t-11.5 -43t-15 -34.5t-24 -21l-118 254q-7 14 -21.5 21.5t-32.5 11t-36.5 4t-31.5 0.5z" />
    <glyph glyph-name="w" unicode="w" horiz-adv-x="936" 
d="M10 570v-61q0 -2 8 -25.5l21.5 -60.5l30 -83l33.5 -92.5l33 -89l27 -72.5q13 -34 27.5 -54.5t34 -31t45.5 -14t62 -3.5h10t15.5 0.5t15.5 0.5h10q19 28 32.5 67.5t23 81.5t16.5 83t13 73q2 -2 8 -2t8 2q4 3 10.5 16t6.5 18q3 -4 9.5 -16.5t7.5 -17.5q3 -10 8.5 -31
l12.5 -48l14 -56.5t14 -56t12 -48t7 -31.5l17 -17h119q-20 7 -36 17.5t-16 33.5q0 35 36 35q18 0 28.5 -6.5t21.5 -28.5l8.5 16.5t8.5 17.5l27 74l32.5 89.5l33 93l30 83l21.5 59.5t8 24v34h-119l-17 -17l-9 -29.5t-14.5 -44.5l-17.5 -53l-17.5 -53l-15 -45t-10.5 -29
q-2 -4 -6.5 -14t-10 -20.5l-10.5 -20l-7 -13.5q-17 41 -29 84l-23 85.5l-22.5 85.5t-27.5 84l-20 3.5l-30.5 5.5t-30.5 5t-20 3q-2 0 -9 0.5t-10 0.5q-11 0 -19 -2t-13 -16l-12 -35.5l-18 -53.5l-21 -63.5l-21 -63.5l-18 -54t-12 -35l-8.5 -17l-8.5 -17l-34 68q0 1 -2.5 1.5
t-4.5 0.5t-5.5 -0.5t-4.5 -1.5q-2 -2 -8.5 -8t-8.5 -9q-16 22 -31.5 54l-31 67l-32 70t-35.5 62.5t-41 44.5t-49 17z" />
    <glyph glyph-name="x" unicode="x" 
d="M264 168l55.5 -79t48 -48t60.5 -23.5t93 -6.5q0 22 -10.5 44.5t-26 43t-34 38.5t-34.5 31q-7 -19 -17.5 -35.5t-32.5 -16.5q-35 0 -35 35q0 15 6.5 23.5t17 12.5t23 4.5t25.5 0.5q0 2 -1 5t-2 5l-9.5 19l-16.5 32l-16.5 32t-8.5 19q-1 1 -1 7v9q0 31 14.5 58.5t34 54.5
l39.5 53.5t31 54.5h-135q-2 0 -8.5 -6.5t-8.5 -10.5l-10.5 -17l-15.5 -25.5l-15 -25.5l-10 -17h-17q-21 39 -38.5 63t-39.5 37.5t-51.5 18t-73.5 4.5v-21q6 -9 20.5 -33.5l30.5 -51.5l30.5 -51t19.5 -33l11 -18.5t5.5 -12t2 -11.5t0.5 -18q0 -2 -0.5 -12t-1.5 -13
l-15.5 -25.5l-24 -39l-28 -45.5l-28 -45.5l-24 -39l-15.5 -25.5l-8.5 -17l-8.5 -17h152l13.5 24l20 35.5l20.5 35.5t14 23q2 3 8.5 9.5t8.5 7.5q1 1 4 1h5h4t4 -1z" />
    <glyph glyph-name="y" unicode="y" horiz-adv-x="580" 
d="M144 -229q0 -47 22.5 -62.5t66.5 -15.5q47 0 80.5 26.5t56.5 69t37.5 96t25 106t18 100t16.5 78.5q3 12 11 36l18 54l21 63l21 63l18.5 54l12.5 35v24q-4 0 -13.5 -1t-20.5 -2t-20.5 -2t-13.5 -2q-3 -1 -9.5 -7t-7.5 -10q-4 -12 -13.5 -43.5l-20.5 -66.5l-20.5 -66.5
t-12.5 -43.5q-3 -11 -6 -30.5l-6.5 -42t-8 -46.5t-11 -43t-15.5 -31t-21 -12q-23 0 -29 12t-6 32q0 19 7 26t16 10t17.5 6.5t11.5 16.5q0 2 -1.5 9t-4.5 15.5t-6 16t-5 10.5q0 1 -3 1h-4h-6q-3 0 -4 -1q-5 -2 -17.5 -8t-16.5 -9l-7 13.5l-10.5 20.5l-10 20.5l-6.5 13.5
q-4 9 -12 29l-18 45l-21 53l-21 53l-18 45t-12 29l-33 34h-122q0 -44 20.5 -93t51 -101t66 -106.5t66 -110.5t51 -112.5t20.5 -112.5q0 -30 -11.5 -48.5t-30.5 -29.5t-43.5 -18t-50.5 -13q-1 -3 -1.5 -13t-0.5 -13z" />
    <glyph glyph-name="z" unicode="z" horiz-adv-x="580" 
d="M10 10v-9q1 -6 3 -20.5t5 -31l5.5 -30.5l3.5 -20h28q21 0 44 -0.5t43 -0.5h29q58 0 103.5 0.5t90 2t93 5.5t111.5 10v68q-25 1 -64 3t-81.5 5.5t-85 10t-74.5 15.5q0 1 -0.5 4t-0.5 4q0 17 8.5 33t19.5 32t23 31.5t18 30.5q-20 7 -36 17.5t-16 33.5q0 35 35 35
q22 0 33 -16t18 -36q30 26 60.5 59.5t55 71.5t40 79t15.5 83q0 15 -0.5 23t-5.5 12.5t-15.5 6.5t-31.5 4l-355 34l-102 -17v-119q32 -2 68.5 -5t74 -7t75 -9.5t70.5 -12.5q-10 -10 -34 -36.5l-51 -56l-51 -56.5l-33 -37l-31.5 -37.5l-46 -57t-41 -58.5t-17.5 -41z" />
    <glyph glyph-name="braceleft" unicode="{" horiz-adv-x="376" 
d="M111 356q2 -35 3 -76t5.5 -82.5t15 -80.5t30.5 -69t52.5 -48t80.5 -18q13 0 25 -0.5t21.5 2.5t15.5 10.5t6 22.5q0 23 -10 37t-24 25.5l-28.5 24t-22.5 32.5q-2 41 -3 87t-9.5 89.5t-28.5 81.5t-61 63q36 29 55.5 63.5t29 73.5t12.5 81.5t5 86.5q12 18 27 27t27.5 18
t21.5 23t9 42q0 16 -3.5 25t-10.5 13t-18.5 4.5t-26.5 0.5q-27 0 -52 -5t-42 -30q-1 -16 -2 -46t-4 -64.5t-9.5 -68.5t-18.5 -58q-17 -35 -45.5 -57.5l-56 -44t-47.5 -46.5t-20 -63v-8q27 -10 55.5 -26t45.5 -42zM178 153q0 35 35 35t35 -35t-35 -35t-35 35z" />
    <glyph glyph-name="bar" unicode="|" horiz-adv-x="207" 
d="M95 -16q1 -9 7.5 -13t14 -5.5t15.5 -1t13 0.5q32 0 42 9t10 41v8q0 6 -0.5 12t-0.5 11v6q-2 26 -7.5 80l-12 122.5l-14 144l-14 144l-12 122.5t-8.5 80q-11 -22 -21 -28.5t-29 -6.5q-35 0 -35 35q0 16 7 24t17.5 11.5t23.5 4t26 0.5q0 15 1.5 43t-1.5 55t-14.5 47
t-37.5 20q-5 0 -13.5 0.5t-17 -1t-15.5 -5.5t-9 -13v-35t-0.5 -53.5t-0.5 -53.5v-35q0 -100 7 -195.5t18.5 -190t27 -190t33.5 -194.5z" />
    <glyph glyph-name="braceright" unicode="}" horiz-adv-x="343" 
d="M180 475q-32 -42 -46.5 -76.5t-20.5 -70t-8 -77t-10 -98.5q-3 -23 -11 -34t-18.5 -17t-21.5 -10.5t-20 -14.5t-15 -29t-6 -54q75 0 118.5 16t66 42.5t29 61t7 71.5t0 74.5t8 70t31 57.5t69.5 37q0 3 1 10t1.5 15l1 15.5t0.5 10.5q0 27 -12.5 41.5t-27.5 24.5t-27.5 20.5
t-12.5 31.5v238q0 23 -14.5 38.5t-36.5 25.5t-49 15.5t-52.5 7.5t-46.5 2.5t-30 0.5v-90q26 -3 48.5 -15.5t36.5 -35.5q-4 -46 -2.5 -85t9 -75t22.5 -71t39 -74zM161 627q0 35 35 35q36 0 36 -35t-36 -35q-35 0 -35 35z" />
    <glyph glyph-name="asciitilde" unicode="~" horiz-adv-x="546" 
d="M174 442q-28 0 -58 -7.5t-54.5 -23.5t-40 -40.5t-15.5 -57.5q0 -5 1.5 -21t2.5 -21q13 10 30.5 22t37 22t39 17t37.5 7h8q3 -1 13 -3.5l21 -5.5l21 -5.5t13 -2.5q2 0 9 -0.5t10 -0.5q12 0 19 5.5t13.5 12.5t13.5 12.5t19 5.5q25 0 30 -13.5t6 -30t6.5 -30t33.5 -13.5
q85 0 121.5 47.5t36.5 127.5q-21 0 -36 -9t-29 -20t-29 -20t-36 -9q-32 0 -61.5 8.5t-58.5 19t-59.5 19t-64.5 8.5z" />
  </font>
</defs>
</svg>
